<?xml version="1.0" encoding="UTF-8" standalone="no"?>
<!DOCTYPE svg PUBLIC "-//W3C//DTD SVG 1.1//EN"
 "http://www.w3.org/Graphics/SVG/1.1/DTD/svg11.dtd">
<!-- Generated by graphviz version 2.43.0 (0)
 -->
<!-- Title: ComponentHierarchy Pages: 1 -->
<svg width="4893pt" height="481pt"
 viewBox="0.00 0.00 4892.50 481.00" xmlns="http://www.w3.org/2000/svg" xmlns:xlink="http://www.w3.org/1999/xlink">
<g id="graph0" class="graph" transform="scale(1 1) rotate(0) translate(4 477)">
<title>ComponentHierarchy</title>
<polygon fill="white" stroke="transparent" points="-4,4 -4,-477 4888.5,-477 4888.5,4 -4,4"/>
<!-- OzoneGUI -->
<g id="node1" class="node">
<title>OzoneGUI</title>
<path fill="#ff6b6b" stroke="black" d="M2690.5,-473C2690.5,-473 2613.5,-473 2613.5,-473 2607.5,-473 2601.5,-467 2601.5,-461 2601.5,-461 2601.5,-449 2601.5,-449 2601.5,-443 2607.5,-437 2613.5,-437 2613.5,-437 2690.5,-437 2690.5,-437 2696.5,-437 2702.5,-443 2702.5,-449 2702.5,-449 2702.5,-461 2702.5,-461 2702.5,-467 2696.5,-473 2690.5,-473"/>
<text text-anchor="middle" x="2652" y="-458.4" font-family="Arial" font-size="12.00" fill="white">OzoneGUI</text>
<text text-anchor="middle" x="2652" y="-445.4" font-family="Arial" font-size="12.00" fill="white">(TGMainFrame)</text>
</g>
<!-- fMainTabs -->
<g id="node2" class="node">
<title>fMainTabs</title>
<path fill="#4ecdc4" stroke="black" d="M2672.5,-401C2672.5,-401 2631.5,-401 2631.5,-401 2625.5,-401 2619.5,-395 2619.5,-389 2619.5,-389 2619.5,-377 2619.5,-377 2619.5,-371 2625.5,-365 2631.5,-365 2631.5,-365 2672.5,-365 2672.5,-365 2678.5,-365 2684.5,-371 2684.5,-377 2684.5,-377 2684.5,-389 2684.5,-389 2684.5,-395 2678.5,-401 2672.5,-401"/>
<text text-anchor="middle" x="2652" y="-386.2" font-family="Arial" font-size="11.00" fill="white">fMainTabs</text>
<text text-anchor="middle" x="2652" y="-374.2" font-family="Arial" font-size="11.00" fill="white">(TGTab)</text>
</g>
<!-- OzoneGUI&#45;&gt;fMainTabs -->
<g id="edge1" class="edge">
<title>OzoneGUI&#45;&gt;fMainTabs</title>
<path fill="none" stroke="#666666" stroke-width="1.5" d="M2652,-436.7C2652,-428.98 2652,-419.71 2652,-411.11"/>
<polygon fill="#666666" stroke="#666666" stroke-width="1.5" points="2655.5,-411.1 2652,-401.1 2648.5,-411.1 2655.5,-411.1"/>
</g>
<!-- WelcomeTab -->
<g id="node3" class="node">
<title>WelcomeTab</title>
<path fill="#95e1d3" stroke="black" d="M308.5,-329C308.5,-329 257.5,-329 257.5,-329 251.5,-329 245.5,-323 245.5,-317 245.5,-317 245.5,-305 245.5,-305 245.5,-299 251.5,-293 257.5,-293 257.5,-293 308.5,-293 308.5,-293 314.5,-293 320.5,-299 320.5,-305 320.5,-305 320.5,-317 320.5,-317 320.5,-323 314.5,-329 308.5,-329"/>
<text text-anchor="middle" x="283" y="-308.5" font-family="Arial" font-size="10.00">Welcome Tab</text>
</g>
<!-- fMainTabs&#45;&gt;WelcomeTab -->
<g id="edge2" class="edge">
<title>fMainTabs&#45;&gt;WelcomeTab</title>
<path fill="none" stroke="#666666" stroke-width="1.5" d="M2619.41,-381.04C2360.73,-373.39 641.27,-322.59 330.95,-313.42"/>
<polygon fill="#666666" stroke="#666666" stroke-width="1.5" points="330.61,-309.91 320.51,-313.11 330.4,-316.9 330.61,-309.91"/>
</g>
<!-- ProcessorTab -->
<g id="node4" class="node">
<title>ProcessorTab</title>
<path fill="#95e1d3" stroke="black" d="M1298.5,-329C1298.5,-329 1243.5,-329 1243.5,-329 1237.5,-329 1231.5,-323 1231.5,-317 1231.5,-317 1231.5,-305 1231.5,-305 1231.5,-299 1237.5,-293 1243.5,-293 1243.5,-293 1298.5,-293 1298.5,-293 1304.5,-293 1310.5,-299 1310.5,-305 1310.5,-305 1310.5,-317 1310.5,-317 1310.5,-323 1304.5,-329 1298.5,-329"/>
<text text-anchor="middle" x="1271" y="-308.5" font-family="Arial" font-size="10.00">Processor Tab</text>
</g>
<!-- fMainTabs&#45;&gt;ProcessorTab -->
<g id="edge3" class="edge">
<title>fMainTabs&#45;&gt;ProcessorTab</title>
<path fill="none" stroke="#666666" stroke-width="1.5" d="M2619.22,-380.34C2436.38,-371.07 1542.66,-325.77 1320.88,-314.53"/>
<polygon fill="#666666" stroke="#666666" stroke-width="1.5" points="1321,-311.03 1310.83,-314.02 1320.64,-318.02 1321,-311.03"/>
</g>
<!-- GraphViewerTab -->
<g id="node5" class="node">
<title>GraphViewerTab</title>
<path fill="#95e1d3" stroke="black" d="M2687,-329C2687,-329 2617,-329 2617,-329 2611,-329 2605,-323 2605,-317 2605,-317 2605,-305 2605,-305 2605,-299 2611,-293 2617,-293 2617,-293 2687,-293 2687,-293 2693,-293 2699,-299 2699,-305 2699,-305 2699,-317 2699,-317 2699,-323 2693,-329 2687,-329"/>
<text text-anchor="middle" x="2652" y="-308.5" font-family="Arial" font-size="10.00">Graph Viewer Tab</text>
</g>
<!-- fMainTabs&#45;&gt;GraphViewerTab -->
<g id="edge4" class="edge">
<title>fMainTabs&#45;&gt;GraphViewerTab</title>
<path fill="none" stroke="#666666" stroke-width="1.5" d="M2652,-364.7C2652,-356.98 2652,-347.71 2652,-339.11"/>
<polygon fill="#666666" stroke="#666666" stroke-width="1.5" points="2655.5,-339.1 2652,-329.1 2648.5,-339.1 2655.5,-339.1"/>
</g>
<!-- MacroRunnerTab -->
<g id="node6" class="node">
<title>MacroRunnerTab</title>
<path fill="#95e1d3" stroke="black" d="M3254,-329C3254,-329 3182,-329 3182,-329 3176,-329 3170,-323 3170,-317 3170,-317 3170,-305 3170,-305 3170,-299 3176,-293 3182,-293 3182,-293 3254,-293 3254,-293 3260,-293 3266,-299 3266,-305 3266,-305 3266,-317 3266,-317 3266,-323 3260,-329 3254,-329"/>
<text text-anchor="middle" x="3218" y="-308.5" font-family="Arial" font-size="10.00">Macro Runner Tab</text>
</g>
<!-- fMainTabs&#45;&gt;MacroRunnerTab -->
<g id="edge5" class="edge">
<title>fMainTabs&#45;&gt;MacroRunnerTab</title>
<path fill="none" stroke="#666666" stroke-width="1.5" d="M2684.88,-377.93C2777.61,-366.47 3042.14,-333.75 3160.06,-319.17"/>
<polygon fill="#666666" stroke="#666666" stroke-width="1.5" points="3160.49,-322.64 3169.98,-317.94 3159.63,-315.69 3160.49,-322.64"/>
</g>
<!-- ViewO3GlobalTab -->
<g id="node7" class="node">
<title>ViewO3GlobalTab</title>
<path fill="#95e1d3" stroke="black" d="M3843.5,-329C3843.5,-329 3764.5,-329 3764.5,-329 3758.5,-329 3752.5,-323 3752.5,-317 3752.5,-317 3752.5,-305 3752.5,-305 3752.5,-299 3758.5,-293 3764.5,-293 3764.5,-293 3843.5,-293 3843.5,-293 3849.5,-293 3855.5,-299 3855.5,-305 3855.5,-305 3855.5,-317 3855.5,-317 3855.5,-323 3849.5,-329 3843.5,-329"/>
<text text-anchor="middle" x="3804" y="-308.5" font-family="Arial" font-size="10.00">View O3 Global Tab</text>
</g>
<!-- fMainTabs&#45;&gt;ViewO3GlobalTab -->
<g id="edge6" class="edge">
<title>fMainTabs&#45;&gt;ViewO3GlobalTab</title>
<path fill="none" stroke="#666666" stroke-width="1.5" d="M2684.62,-380.02C2842.79,-370.41 3530.82,-328.6 3742.08,-315.76"/>
<polygon fill="#666666" stroke="#666666" stroke-width="1.5" points="3742.6,-319.24 3752.36,-315.14 3742.17,-312.25 3742.6,-319.24"/>
</g>
<!-- WelcomeTitle -->
<g id="node8" class="node">
<title>WelcomeTitle</title>
<path fill="#f8b400" stroke="black" d="M155,-257C155,-257 89,-257 89,-257 83,-257 77,-251 77,-245 77,-245 77,-233 77,-233 77,-227 83,-221 89,-221 89,-221 155,-221 155,-221 161,-221 167,-227 167,-233 167,-233 167,-245 167,-245 167,-251 161,-257 155,-257"/>
<text text-anchor="middle" x="122" y="-242" font-family="Arial" font-size="10.00">TGVerticalFrame</text>
<text text-anchor="middle" x="122" y="-231" font-family="Arial" font-size="10.00">(Title Section)</text>
</g>
<!-- WelcomeTab&#45;&gt;WelcomeTitle -->
<g id="edge7" class="edge">
<title>WelcomeTab&#45;&gt;WelcomeTitle</title>
<path fill="none" stroke="#666666" stroke-width="1.5" d="M245.25,-293.59C222.93,-283.88 194.44,-271.5 170.47,-261.08"/>
<polygon fill="#666666" stroke="#666666" stroke-width="1.5" points="171.76,-257.82 161.19,-257.04 168.97,-264.24 171.76,-257.82"/>
</g>
<!-- WelcomeLogo -->
<g id="node11" class="node">
<title>WelcomeLogo</title>
<path fill="#f8b400" stroke="black" d="M263,-257C263,-257 197,-257 197,-257 191,-257 185,-251 185,-245 185,-245 185,-233 185,-233 185,-227 191,-221 197,-221 197,-221 263,-221 263,-221 269,-221 275,-227 275,-233 275,-233 275,-245 275,-245 275,-251 269,-257 263,-257"/>
<text text-anchor="middle" x="230" y="-242" font-family="Arial" font-size="10.00">TGVerticalFrame</text>
<text text-anchor="middle" x="230" y="-231" font-family="Arial" font-size="10.00">(Logo Section)</text>
</g>
<!-- WelcomeTab&#45;&gt;WelcomeLogo -->
<g id="edge8" class="edge">
<title>WelcomeTab&#45;&gt;WelcomeLogo</title>
<path fill="none" stroke="#666666" stroke-width="1.5" d="M269.9,-292.7C263.61,-284.39 255.95,-274.28 249.04,-265.14"/>
<polygon fill="#666666" stroke="#666666" stroke-width="1.5" points="251.78,-262.96 242.95,-257.1 246.2,-267.19 251.78,-262.96"/>
</g>
<!-- WelcomeDesc -->
<g id="node13" class="node">
<title>WelcomeDesc</title>
<path fill="#f8b400" stroke="black" d="M365,-257C365,-257 305,-257 305,-257 299,-257 293,-251 293,-245 293,-245 293,-233 293,-233 293,-227 299,-221 305,-221 305,-221 365,-221 365,-221 371,-221 377,-227 377,-233 377,-233 377,-245 377,-245 377,-251 371,-257 365,-257"/>
<text text-anchor="middle" x="335" y="-242" font-family="Arial" font-size="10.00">TGGroupFrame</text>
<text text-anchor="middle" x="335" y="-231" font-family="Arial" font-size="10.00">(Description)</text>
</g>
<!-- WelcomeTab&#45;&gt;WelcomeDesc -->
<g id="edge9" class="edge">
<title>WelcomeTab&#45;&gt;WelcomeDesc</title>
<path fill="none" stroke="#666666" stroke-width="1.5" d="M295.85,-292.7C302.03,-284.39 309.54,-274.28 316.32,-265.14"/>
<polygon fill="#666666" stroke="#666666" stroke-width="1.5" points="319.14,-267.22 322.29,-257.1 313.52,-263.04 319.14,-267.22"/>
</g>
<!-- ProcMode -->
<g id="node15" class="node">
<title>ProcMode</title>
<path fill="#a8e6cf" stroke="black" d="M503,-257C503,-257 443,-257 443,-257 437,-257 431,-251 431,-245 431,-245 431,-233 431,-233 431,-227 437,-221 443,-221 443,-221 503,-221 503,-221 509,-221 515,-227 515,-233 515,-233 515,-245 515,-245 515,-251 509,-257 503,-257"/>
<text text-anchor="middle" x="473" y="-242" font-family="Arial" font-size="10.00">TGGroupFrame</text>
<text text-anchor="middle" x="473" y="-231" font-family="Arial" font-size="10.00">(Mode)</text>
</g>
<!-- ProcessorTab&#45;&gt;ProcMode -->
<g id="edge14" class="edge">
<title>ProcessorTab&#45;&gt;ProcMode</title>
<path fill="none" stroke="#666666" stroke-width="1.5" d="M1231.13,-308.27C1124.22,-303.34 822.39,-287.6 573,-257 557.37,-255.08 540.46,-252.43 525.07,-249.79"/>
<polygon fill="#666666" stroke="#666666" stroke-width="1.5" points="525.66,-246.34 515.2,-248.07 524.45,-253.24 525.66,-246.34"/>
</g>
<!-- ProcLocation -->
<g id="node17" class="node">
<title>ProcLocation</title>
<path fill="#a8e6cf" stroke="black" d="M654,-257C654,-257 594,-257 594,-257 588,-257 582,-251 582,-245 582,-245 582,-233 582,-233 582,-227 588,-221 594,-221 594,-221 654,-221 654,-221 660,-221 666,-227 666,-233 666,-233 666,-245 666,-245 666,-251 660,-257 654,-257"/>
<text text-anchor="middle" x="624" y="-242" font-family="Arial" font-size="10.00">TGGroupFrame</text>
<text text-anchor="middle" x="624" y="-231" font-family="Arial" font-size="10.00">(Location)</text>
</g>
<!-- ProcessorTab&#45;&gt;ProcLocation -->
<g id="edge15" class="edge">
<title>ProcessorTab&#45;&gt;ProcLocation</title>
<path fill="none" stroke="#666666" stroke-width="1.5" d="M1231.33,-308.06C1138.13,-303.13 898.16,-288.23 700,-257 692.21,-255.77 684.02,-254.22 676.01,-252.56"/>
<polygon fill="#666666" stroke="#666666" stroke-width="1.5" points="676.54,-249.09 666.03,-250.4 675.06,-255.93 676.54,-249.09"/>
</g>
<!-- ProcDataPath -->
<g id="node19" class="node">
<title>ProcDataPath</title>
<path fill="#a8e6cf" stroke="black" d="M781,-257C781,-257 721,-257 721,-257 715,-257 709,-251 709,-245 709,-245 709,-233 709,-233 709,-227 715,-221 721,-221 721,-221 781,-221 781,-221 787,-221 793,-227 793,-233 793,-233 793,-245 793,-245 793,-251 787,-257 781,-257"/>
<text text-anchor="middle" x="751" y="-242" font-family="Arial" font-size="10.00">TGGroupFrame</text>
<text text-anchor="middle" x="751" y="-231" font-family="Arial" font-size="10.00">(Data Path)</text>
</g>
<!-- ProcessorTab&#45;&gt;ProcDataPath -->
<g id="edge16" class="edge">
<title>ProcessorTab&#45;&gt;ProcDataPath</title>
<path fill="none" stroke="#666666" stroke-width="1.5" d="M1231.49,-304.68C1138.82,-292.21 907.49,-261.07 803.31,-247.04"/>
<polygon fill="#666666" stroke="#666666" stroke-width="1.5" points="803.71,-243.56 793.34,-245.7 802.78,-250.5 803.71,-243.56"/>
</g>
<!-- ProcLatRange -->
<g id="node22" class="node">
<title>ProcLatRange</title>
<path fill="#a8e6cf" stroke="black" d="M1042.5,-257C1042.5,-257 977.5,-257 977.5,-257 971.5,-257 965.5,-251 965.5,-245 965.5,-245 965.5,-233 965.5,-233 965.5,-227 971.5,-221 977.5,-221 977.5,-221 1042.5,-221 1042.5,-221 1048.5,-221 1054.5,-227 1054.5,-233 1054.5,-233 1054.5,-245 1054.5,-245 1054.5,-251 1048.5,-257 1042.5,-257"/>
<text text-anchor="middle" x="1010" y="-242" font-family="Arial" font-size="10.00">TGGroupFrame</text>
<text text-anchor="middle" x="1010" y="-231" font-family="Arial" font-size="10.00">(Latitude Range)</text>
</g>
<!-- ProcessorTab&#45;&gt;ProcLatRange -->
<g id="edge17" class="edge">
<title>ProcessorTab&#45;&gt;ProcLatRange</title>
<path fill="none" stroke="#666666" stroke-width="1.5" d="M1231.36,-299.37C1186.93,-287.45 1114.62,-268.06 1064.8,-254.7"/>
<polygon fill="#666666" stroke="#666666" stroke-width="1.5" points="1065.4,-251.24 1054.84,-252.03 1063.59,-258 1065.4,-251.24"/>
</g>
<!-- ProcParams -->
<g id="node26" class="node">
<title>ProcParams</title>
<path fill="#a8e6cf" stroke="black" d="M1301,-257C1301,-257 1241,-257 1241,-257 1235,-257 1229,-251 1229,-245 1229,-245 1229,-233 1229,-233 1229,-227 1235,-221 1241,-221 1241,-221 1301,-221 1301,-221 1307,-221 1313,-227 1313,-233 1313,-233 1313,-245 1313,-245 1313,-251 1307,-257 1301,-257"/>
<text text-anchor="middle" x="1271" y="-242" font-family="Arial" font-size="10.00">TGGroupFrame</text>
<text text-anchor="middle" x="1271" y="-231" font-family="Arial" font-size="10.00">(Parameters)</text>
</g>
<!-- ProcessorTab&#45;&gt;ProcParams -->
<g id="edge18" class="edge">
<title>ProcessorTab&#45;&gt;ProcParams</title>
<path fill="none" stroke="#666666" stroke-width="1.5" d="M1271,-292.7C1271,-284.98 1271,-275.71 1271,-267.11"/>
<polygon fill="#666666" stroke="#666666" stroke-width="1.5" points="1274.5,-267.1 1271,-257.1 1267.5,-267.1 1274.5,-267.1"/>
</g>
<!-- ProcPerf -->
<g id="node30" class="node">
<title>ProcPerf</title>
<path fill="#a8e6cf" stroke="black" d="M1527,-257C1527,-257 1467,-257 1467,-257 1461,-257 1455,-251 1455,-245 1455,-245 1455,-233 1455,-233 1455,-227 1461,-221 1467,-221 1467,-221 1527,-221 1527,-221 1533,-221 1539,-227 1539,-233 1539,-233 1539,-245 1539,-245 1539,-251 1533,-257 1527,-257"/>
<text text-anchor="middle" x="1497" y="-242" font-family="Arial" font-size="10.00">TGGroupFrame</text>
<text text-anchor="middle" x="1497" y="-231" font-family="Arial" font-size="10.00">(Performance)</text>
</g>
<!-- ProcessorTab&#45;&gt;ProcPerf -->
<g id="edge19" class="edge">
<title>ProcessorTab&#45;&gt;ProcPerf</title>
<path fill="none" stroke="#666666" stroke-width="1.5" d="M1310.62,-297.73C1347.93,-286.17 1404.04,-268.79 1444.94,-256.12"/>
<polygon fill="#666666" stroke="#666666" stroke-width="1.5" points="1446.22,-259.39 1454.73,-253.09 1444.14,-252.71 1446.22,-259.39"/>
</g>
<!-- ProcButtons -->
<g id="node33" class="node">
<title>ProcButtons</title>
<path fill="#a8e6cf" stroke="black" d="M1750.5,-257C1750.5,-257 1693.5,-257 1693.5,-257 1687.5,-257 1681.5,-251 1681.5,-245 1681.5,-245 1681.5,-233 1681.5,-233 1681.5,-227 1687.5,-221 1693.5,-221 1693.5,-221 1750.5,-221 1750.5,-221 1756.5,-221 1762.5,-227 1762.5,-233 1762.5,-233 1762.5,-245 1762.5,-245 1762.5,-251 1756.5,-257 1750.5,-257"/>
<text text-anchor="middle" x="1722" y="-236.5" font-family="Arial" font-size="10.00">Buttons Frame</text>
</g>
<!-- ProcessorTab&#45;&gt;ProcButtons -->
<g id="edge20" class="edge">
<title>ProcessorTab&#45;&gt;ProcButtons</title>
<path fill="none" stroke="#666666" stroke-width="1.5" d="M1310.63,-303.85C1392.59,-291.13 1580.63,-261.94 1671.29,-247.87"/>
<polygon fill="#666666" stroke="#666666" stroke-width="1.5" points="1671.98,-251.31 1681.33,-246.31 1670.91,-244.39 1671.98,-251.31"/>
</g>
<!-- ProcLog -->
<g id="node36" class="node">
<title>ProcLog</title>
<path fill="#a8e6cf" stroke="black" d="M1902,-257C1902,-257 1842,-257 1842,-257 1836,-257 1830,-251 1830,-245 1830,-245 1830,-233 1830,-233 1830,-227 1836,-221 1842,-221 1842,-221 1902,-221 1902,-221 1908,-221 1914,-227 1914,-233 1914,-233 1914,-245 1914,-245 1914,-251 1908,-257 1902,-257"/>
<text text-anchor="middle" x="1872" y="-242" font-family="Arial" font-size="10.00">TGGroupFrame</text>
<text text-anchor="middle" x="1872" y="-231" font-family="Arial" font-size="10.00">(Process Log)</text>
</g>
<!-- ProcessorTab&#45;&gt;ProcLog -->
<g id="edge21" class="edge">
<title>ProcessorTab&#45;&gt;ProcLog</title>
<path fill="none" stroke="#666666" stroke-width="1.5" d="M1310.64,-306.63C1395.34,-299.24 1600.19,-280.41 1771,-257 1786.9,-254.82 1804.13,-252.07 1819.79,-249.41"/>
<polygon fill="#666666" stroke="#666666" stroke-width="1.5" points="1820.56,-252.83 1829.83,-247.69 1819.38,-245.93 1820.56,-252.83"/>
</g>
<!-- GraphDir -->
<g id="node38" class="node">
<title>GraphDir</title>
<path fill="#b4a7d6" stroke="black" d="M2211,-257C2211,-257 2143,-257 2143,-257 2137,-257 2131,-251 2131,-245 2131,-245 2131,-233 2131,-233 2131,-227 2137,-221 2143,-221 2143,-221 2211,-221 2211,-221 2217,-221 2223,-227 2223,-233 2223,-233 2223,-245 2223,-245 2223,-251 2217,-257 2211,-257"/>
<text text-anchor="middle" x="2177" y="-242" font-family="Arial" font-size="10.00">TGGroupFrame</text>
<text text-anchor="middle" x="2177" y="-231" font-family="Arial" font-size="10.00">(Graph Directory)</text>
</g>
<!-- GraphViewerTab&#45;&gt;GraphDir -->
<g id="edge37" class="edge">
<title>GraphViewerTab&#45;&gt;GraphDir</title>
<path fill="none" stroke="#666666" stroke-width="1.5" d="M2604.72,-303.03C2516.53,-290.04 2327.37,-262.16 2232.97,-248.25"/>
<polygon fill="#666666" stroke="#666666" stroke-width="1.5" points="2233.44,-244.78 2223.04,-246.78 2232.42,-251.71 2233.44,-244.78"/>
</g>
<!-- GraphFilter -->
<g id="node42" class="node">
<title>GraphFilter</title>
<path fill="#b4a7d6" stroke="black" d="M2520,-257C2520,-257 2460,-257 2460,-257 2454,-257 2448,-251 2448,-245 2448,-245 2448,-233 2448,-233 2448,-227 2454,-221 2460,-221 2460,-221 2520,-221 2520,-221 2526,-221 2532,-227 2532,-233 2532,-233 2532,-245 2532,-245 2532,-251 2526,-257 2520,-257"/>
<text text-anchor="middle" x="2490" y="-242" font-family="Arial" font-size="10.00">TGGroupFrame</text>
<text text-anchor="middle" x="2490" y="-231" font-family="Arial" font-size="10.00">(Folder Filter)</text>
</g>
<!-- GraphViewerTab&#45;&gt;GraphFilter -->
<g id="edge38" class="edge">
<title>GraphViewerTab&#45;&gt;GraphFilter</title>
<path fill="none" stroke="#666666" stroke-width="1.5" d="M2612.37,-292.88C2590.22,-283.31 2562.44,-271.3 2538.94,-261.15"/>
<polygon fill="#666666" stroke="#666666" stroke-width="1.5" points="2540.07,-257.82 2529.5,-257.07 2537.29,-264.25 2540.07,-257.82"/>
</g>
<!-- GraphLists -->
<g id="node46" class="node">
<title>GraphLists</title>
<path fill="#b4a7d6" stroke="black" d="M2691,-257C2691,-257 2613,-257 2613,-257 2607,-257 2601,-251 2601,-245 2601,-245 2601,-233 2601,-233 2601,-227 2607,-221 2613,-221 2613,-221 2691,-221 2691,-221 2697,-221 2703,-227 2703,-233 2703,-233 2703,-245 2703,-245 2703,-251 2697,-257 2691,-257"/>
<text text-anchor="middle" x="2652" y="-242" font-family="Arial" font-size="10.00">TGHorizontalFrame</text>
<text text-anchor="middle" x="2652" y="-231" font-family="Arial" font-size="10.00">(Lists)</text>
</g>
<!-- GraphViewerTab&#45;&gt;GraphLists -->
<g id="edge39" class="edge">
<title>GraphViewerTab&#45;&gt;GraphLists</title>
<path fill="none" stroke="#666666" stroke-width="1.5" d="M2652,-292.7C2652,-284.98 2652,-275.71 2652,-267.11"/>
<polygon fill="#666666" stroke="#666666" stroke-width="1.5" points="2655.5,-267.1 2652,-257.1 2648.5,-267.1 2655.5,-267.1"/>
</g>
<!-- GraphInfoLabel -->
<g id="node51" class="node">
<title>GraphInfoLabel</title>
<path fill="#b4a7d6" stroke="black" d="M2795,-257C2795,-257 2733,-257 2733,-257 2727,-257 2721,-251 2721,-245 2721,-245 2721,-233 2721,-233 2721,-227 2727,-221 2733,-221 2733,-221 2795,-221 2795,-221 2801,-221 2807,-227 2807,-233 2807,-233 2807,-245 2807,-245 2807,-251 2801,-257 2795,-257"/>
<text text-anchor="middle" x="2764" y="-242" font-family="Arial" font-size="10.00">fGraphInfoLabel</text>
<text text-anchor="middle" x="2764" y="-231" font-family="Arial" font-size="10.00">(TGLabel)</text>
</g>
<!-- GraphViewerTab&#45;&gt;GraphInfoLabel -->
<g id="edge40" class="edge">
<title>GraphViewerTab&#45;&gt;GraphInfoLabel</title>
<path fill="none" stroke="#666666" stroke-width="1.5" d="M2679.4,-292.88C2693.91,-283.81 2711.92,-272.55 2727.59,-262.76"/>
<polygon fill="#666666" stroke="#666666" stroke-width="1.5" points="2729.87,-265.46 2736.5,-257.19 2726.16,-259.52 2729.87,-265.46"/>
</g>
<!-- GraphDisplay -->
<g id="node52" class="node">
<title>GraphDisplay</title>
<path fill="#b4a7d6" stroke="black" d="M2904.5,-257C2904.5,-257 2843.5,-257 2843.5,-257 2837.5,-257 2831.5,-251 2831.5,-245 2831.5,-245 2831.5,-233 2831.5,-233 2831.5,-227 2837.5,-221 2843.5,-221 2843.5,-221 2904.5,-221 2904.5,-221 2910.5,-221 2916.5,-227 2916.5,-233 2916.5,-233 2916.5,-245 2916.5,-245 2916.5,-251 2910.5,-257 2904.5,-257"/>
<text text-anchor="middle" x="2874" y="-242" font-family="Arial" font-size="10.00">TGGroupFrame</text>
<text text-anchor="middle" x="2874" y="-231" font-family="Arial" font-size="10.00">(Graph Display)</text>
</g>
<!-- GraphViewerTab&#45;&gt;GraphDisplay -->
<g id="edge41" class="edge">
<title>GraphViewerTab&#45;&gt;GraphDisplay</title>
<path fill="none" stroke="#666666" stroke-width="1.5" d="M2699.08,-295.15C2735.07,-283.81 2784.65,-268.17 2821.84,-256.45"/>
<polygon fill="#666666" stroke="#666666" stroke-width="1.5" points="2823.01,-259.75 2831.49,-253.4 2820.9,-253.07 2823.01,-259.75"/>
</g>
<!-- MacroSel -->
<g id="node54" class="node">
<title>MacroSel</title>
<path fill="#fab1a0" stroke="black" d="M3088.5,-257C3088.5,-257 3019.5,-257 3019.5,-257 3013.5,-257 3007.5,-251 3007.5,-245 3007.5,-245 3007.5,-233 3007.5,-233 3007.5,-227 3013.5,-221 3019.5,-221 3019.5,-221 3088.5,-221 3088.5,-221 3094.5,-221 3100.5,-227 3100.5,-233 3100.5,-233 3100.5,-245 3100.5,-245 3100.5,-251 3094.5,-257 3088.5,-257"/>
<text text-anchor="middle" x="3054" y="-242" font-family="Arial" font-size="10.00">TGGroupFrame</text>
<text text-anchor="middle" x="3054" y="-231" font-family="Arial" font-size="10.00">(Macro Selection)</text>
</g>
<!-- MacroRunnerTab&#45;&gt;MacroSel -->
<g id="edge53" class="edge">
<title>MacroRunnerTab&#45;&gt;MacroSel</title>
<path fill="none" stroke="#666666" stroke-width="1.5" d="M3177.88,-292.88C3155.36,-283.26 3127.08,-271.19 3103.23,-261.01"/>
<polygon fill="#666666" stroke="#666666" stroke-width="1.5" points="3104.56,-257.77 3093.99,-257.07 3101.81,-264.21 3104.56,-257.77"/>
</g>
<!-- MacroParams -->
<g id="node56" class="node">
<title>MacroParams</title>
<path fill="#fab1a0" stroke="black" d="M3257.5,-257C3257.5,-257 3178.5,-257 3178.5,-257 3172.5,-257 3166.5,-251 3166.5,-245 3166.5,-245 3166.5,-233 3166.5,-233 3166.5,-227 3172.5,-221 3178.5,-221 3178.5,-221 3257.5,-221 3257.5,-221 3263.5,-221 3269.5,-227 3269.5,-233 3269.5,-233 3269.5,-245 3269.5,-245 3269.5,-251 3263.5,-257 3257.5,-257"/>
<text text-anchor="middle" x="3218" y="-242" font-family="Arial" font-size="10.00">TGGroupFrame</text>
<text text-anchor="middle" x="3218" y="-231" font-family="Arial" font-size="10.00">(Macro Parameters)</text>
</g>
<!-- MacroRunnerTab&#45;&gt;MacroParams -->
<g id="edge54" class="edge">
<title>MacroRunnerTab&#45;&gt;MacroParams</title>
<path fill="none" stroke="#666666" stroke-width="1.5" d="M3218,-292.7C3218,-284.98 3218,-275.71 3218,-267.11"/>
<polygon fill="#666666" stroke="#666666" stroke-width="1.5" points="3221.5,-267.1 3218,-257.1 3214.5,-267.1 3221.5,-267.1"/>
</g>
<!-- MacroButtons -->
<g id="node60" class="node">
<title>MacroButtons</title>
<path fill="#fab1a0" stroke="black" d="M3463.5,-257C3463.5,-257 3406.5,-257 3406.5,-257 3400.5,-257 3394.5,-251 3394.5,-245 3394.5,-245 3394.5,-233 3394.5,-233 3394.5,-227 3400.5,-221 3406.5,-221 3406.5,-221 3463.5,-221 3463.5,-221 3469.5,-221 3475.5,-227 3475.5,-233 3475.5,-233 3475.5,-245 3475.5,-245 3475.5,-251 3469.5,-257 3463.5,-257"/>
<text text-anchor="middle" x="3435" y="-236.5" font-family="Arial" font-size="10.00">Buttons Frame</text>
</g>
<!-- MacroRunnerTab&#45;&gt;MacroButtons -->
<g id="edge55" class="edge">
<title>MacroRunnerTab&#45;&gt;MacroButtons</title>
<path fill="none" stroke="#666666" stroke-width="1.5" d="M3266.16,-294.46C3301.31,-283.13 3348.86,-267.79 3384.53,-256.28"/>
<polygon fill="#666666" stroke="#666666" stroke-width="1.5" points="3385.82,-259.54 3394.26,-253.14 3383.67,-252.88 3385.82,-259.54"/>
</g>
<!-- MacroLog -->
<g id="node63" class="node">
<title>MacroLog</title>
<path fill="#fab1a0" stroke="black" d="M3662,-257C3662,-257 3602,-257 3602,-257 3596,-257 3590,-251 3590,-245 3590,-245 3590,-233 3590,-233 3590,-227 3596,-221 3602,-221 3602,-221 3662,-221 3662,-221 3668,-221 3674,-227 3674,-233 3674,-233 3674,-245 3674,-245 3674,-251 3668,-257 3662,-257"/>
<text text-anchor="middle" x="3632" y="-242" font-family="Arial" font-size="10.00">TGGroupFrame</text>
<text text-anchor="middle" x="3632" y="-231" font-family="Arial" font-size="10.00">(Macro Log)</text>
</g>
<!-- MacroRunnerTab&#45;&gt;MacroLog -->
<g id="edge56" class="edge">
<title>MacroRunnerTab&#45;&gt;MacroLog</title>
<path fill="none" stroke="#666666" stroke-width="1.5" d="M3266.3,-301.83C3344.75,-288.57 3499.18,-262.46 3579.97,-248.8"/>
<polygon fill="#666666" stroke="#666666" stroke-width="1.5" points="3580.64,-252.23 3589.91,-247.12 3579.47,-245.33 3580.64,-252.23"/>
</g>
<!-- ViewO3Control -->
<g id="node65" class="node">
<title>ViewO3Control</title>
<path fill="#74b9ff" stroke="black" d="M3843,-257C3843,-257 3765,-257 3765,-257 3759,-257 3753,-251 3753,-245 3753,-245 3753,-233 3753,-233 3753,-227 3759,-221 3765,-221 3765,-221 3843,-221 3843,-221 3849,-221 3855,-227 3855,-233 3855,-233 3855,-245 3855,-245 3855,-251 3849,-257 3843,-257"/>
<text text-anchor="middle" x="3804" y="-242" font-family="Arial" font-size="10.00">TGHorizontalFrame</text>
<text text-anchor="middle" x="3804" y="-231" font-family="Arial" font-size="10.00">(Control Panel)</text>
</g>
<!-- ViewO3GlobalTab&#45;&gt;ViewO3Control -->
<g id="edge64" class="edge">
<title>ViewO3GlobalTab&#45;&gt;ViewO3Control</title>
<path fill="none" stroke="#666666" stroke-width="1.5" d="M3804,-292.7C3804,-284.98 3804,-275.71 3804,-267.11"/>
<polygon fill="#666666" stroke="#666666" stroke-width="1.5" points="3807.5,-267.1 3804,-257.1 3800.5,-267.1 3807.5,-267.1"/>
</g>
<!-- ViewO3Canvas -->
<g id="node84" class="node">
<title>ViewO3Canvas</title>
<path fill="#74b9ff" stroke="black" d="M3991,-257C3991,-257 3885,-257 3885,-257 3879,-257 3873,-251 3873,-245 3873,-245 3873,-233 3873,-233 3873,-227 3879,-221 3885,-221 3885,-221 3991,-221 3991,-221 3997,-221 4003,-227 4003,-233 4003,-233 4003,-245 4003,-245 4003,-251 3997,-257 3991,-257"/>
<text text-anchor="middle" x="3938" y="-242" font-family="Arial" font-size="10.00">fEmbCanvas</text>
<text text-anchor="middle" x="3938" y="-231" font-family="Arial" font-size="10.00">(TRootEmbeddedCanvas)</text>
</g>
<!-- ViewO3GlobalTab&#45;&gt;ViewO3Canvas -->
<g id="edge65" class="edge">
<title>ViewO3GlobalTab&#45;&gt;ViewO3Canvas</title>
<path fill="none" stroke="#666666" stroke-width="1.5" d="M3836.78,-292.88C3854.63,-283.55 3876.9,-271.92 3896,-261.94"/>
<polygon fill="#666666" stroke="#666666" stroke-width="1.5" points="3897.85,-264.92 3905.09,-257.19 3894.61,-258.72 3897.85,-264.92"/>
</g>
<!-- WelcomeProgramTitle -->
<g id="node9" class="node">
<title>WelcomeProgramTitle</title>
<path fill="#ffe66d" stroke="black" d="M62,-182.5C62,-182.5 12,-182.5 12,-182.5 6,-182.5 0,-176.5 0,-170.5 0,-170.5 0,-158.5 0,-158.5 0,-152.5 6,-146.5 12,-146.5 12,-146.5 62,-146.5 62,-146.5 68,-146.5 74,-152.5 74,-158.5 74,-158.5 74,-170.5 74,-170.5 74,-176.5 68,-182.5 62,-182.5"/>
<text text-anchor="middle" x="37" y="-167.5" font-family="Arial" font-size="10.00">Program Title</text>
<text text-anchor="middle" x="37" y="-156.5" font-family="Arial" font-size="10.00">(TGLabel)</text>
</g>
<!-- WelcomeTitle&#45;&gt;WelcomeProgramTitle -->
<g id="edge10" class="edge">
<title>WelcomeTitle&#45;&gt;WelcomeProgramTitle</title>
<path fill="none" stroke="#666666" stroke-width="1.5" d="M101.86,-220.82C90.74,-211.34 76.77,-199.43 64.65,-189.08"/>
<polygon fill="#666666" stroke="#666666" stroke-width="1.5" points="66.88,-186.38 57,-182.56 62.34,-191.71 66.88,-186.38"/>
</g>
<!-- WelcomeSubtitle -->
<g id="node10" class="node">
<title>WelcomeSubtitle</title>
<path fill="#ffe66d" stroke="black" d="M139.5,-182.5C139.5,-182.5 104.5,-182.5 104.5,-182.5 98.5,-182.5 92.5,-176.5 92.5,-170.5 92.5,-170.5 92.5,-158.5 92.5,-158.5 92.5,-152.5 98.5,-146.5 104.5,-146.5 104.5,-146.5 139.5,-146.5 139.5,-146.5 145.5,-146.5 151.5,-152.5 151.5,-158.5 151.5,-158.5 151.5,-170.5 151.5,-170.5 151.5,-176.5 145.5,-182.5 139.5,-182.5"/>
<text text-anchor="middle" x="122" y="-167.5" font-family="Arial" font-size="10.00">Subtitle</text>
<text text-anchor="middle" x="122" y="-156.5" font-family="Arial" font-size="10.00">(TGLabel)</text>
</g>
<!-- WelcomeTitle&#45;&gt;WelcomeSubtitle -->
<g id="edge11" class="edge">
<title>WelcomeTitle&#45;&gt;WelcomeSubtitle</title>
<path fill="none" stroke="#666666" stroke-width="1.5" d="M122,-220.82C122,-212.42 122,-202.12 122,-192.69"/>
<polygon fill="#666666" stroke="#666666" stroke-width="1.5" points="125.5,-192.56 122,-182.56 118.5,-192.56 125.5,-192.56"/>
</g>
<!-- WelcomeLogoIcon -->
<g id="node12" class="node">
<title>WelcomeLogoIcon</title>
<path fill="#ffe66d" stroke="black" d="M253,-182.5C253,-182.5 183,-182.5 183,-182.5 177,-182.5 171,-176.5 171,-170.5 171,-170.5 171,-158.5 171,-158.5 171,-152.5 177,-146.5 183,-146.5 183,-146.5 253,-146.5 253,-146.5 259,-146.5 265,-152.5 265,-158.5 265,-158.5 265,-170.5 265,-170.5 265,-176.5 259,-182.5 253,-182.5"/>
<text text-anchor="middle" x="218" y="-167.5" font-family="Arial" font-size="10.00">TGIcon / TGLabel</text>
<text text-anchor="middle" x="218" y="-156.5" font-family="Arial" font-size="10.00">(University Logo)</text>
</g>
<!-- WelcomeLogo&#45;&gt;WelcomeLogoIcon -->
<g id="edge12" class="edge">
<title>WelcomeLogo&#45;&gt;WelcomeLogoIcon</title>
<path fill="none" stroke="#666666" stroke-width="1.5" d="M227.16,-220.82C225.77,-212.42 224.06,-202.12 222.5,-192.69"/>
<polygon fill="#666666" stroke="#666666" stroke-width="1.5" points="225.91,-191.85 220.82,-182.56 219,-193 225.91,-191.85"/>
</g>
<!-- WelcomeTextView -->
<g id="node14" class="node">
<title>WelcomeTextView</title>
<path fill="#ffe66d" stroke="black" d="M375,-182.5C375,-182.5 295,-182.5 295,-182.5 289,-182.5 283,-176.5 283,-170.5 283,-170.5 283,-158.5 283,-158.5 283,-152.5 289,-146.5 295,-146.5 295,-146.5 375,-146.5 375,-146.5 381,-146.5 387,-152.5 387,-158.5 387,-158.5 387,-170.5 387,-170.5 387,-176.5 381,-182.5 375,-182.5"/>
<text text-anchor="middle" x="335" y="-167.5" font-family="Arial" font-size="10.00">TGTextView</text>
<text text-anchor="middle" x="335" y="-156.5" font-family="Arial" font-size="10.00">(Program Overview)</text>
</g>
<!-- WelcomeDesc&#45;&gt;WelcomeTextView -->
<g id="edge13" class="edge">
<title>WelcomeDesc&#45;&gt;WelcomeTextView</title>
<path fill="none" stroke="#666666" stroke-width="1.5" d="M335,-220.82C335,-212.42 335,-202.12 335,-192.69"/>
<polygon fill="#666666" stroke="#666666" stroke-width="1.5" points="338.5,-192.56 335,-182.56 331.5,-192.56 338.5,-192.56"/>
</g>
<!-- ProcModeSelector -->
<g id="node16" class="node">
<title>ProcModeSelector</title>
<path fill="#dcedc1" stroke="black" d="M478.5,-182.5C478.5,-182.5 417.5,-182.5 417.5,-182.5 411.5,-182.5 405.5,-176.5 405.5,-170.5 405.5,-170.5 405.5,-158.5 405.5,-158.5 405.5,-152.5 411.5,-146.5 417.5,-146.5 417.5,-146.5 478.5,-146.5 478.5,-146.5 484.5,-146.5 490.5,-152.5 490.5,-158.5 490.5,-158.5 490.5,-170.5 490.5,-170.5 490.5,-176.5 484.5,-182.5 478.5,-182.5"/>
<text text-anchor="middle" x="448" y="-167.5" font-family="Arial" font-size="10.00">fModeSelector</text>
<text text-anchor="middle" x="448" y="-156.5" font-family="Arial" font-size="10.00">(TGComboBox)</text>
</g>
<!-- ProcMode&#45;&gt;ProcModeSelector -->
<g id="edge22" class="edge">
<title>ProcMode&#45;&gt;ProcModeSelector</title>
<path fill="none" stroke="#666666" stroke-width="1.5" d="M467.08,-220.82C464.12,-212.24 460.47,-201.67 457.17,-192.08"/>
<polygon fill="#666666" stroke="#666666" stroke-width="1.5" points="460.45,-190.87 453.88,-182.56 453.83,-193.15 460.45,-190.87"/>
</g>
<!-- ProcLocationEntry -->
<g id="node18" class="node">
<title>ProcLocationEntry</title>
<path fill="#dcedc1" stroke="black" d="M577,-182.5C577,-182.5 521,-182.5 521,-182.5 515,-182.5 509,-176.5 509,-170.5 509,-170.5 509,-158.5 509,-158.5 509,-152.5 515,-146.5 521,-146.5 521,-146.5 577,-146.5 577,-146.5 583,-146.5 589,-152.5 589,-158.5 589,-158.5 589,-170.5 589,-170.5 589,-176.5 583,-182.5 577,-182.5"/>
<text text-anchor="middle" x="549" y="-167.5" font-family="Arial" font-size="10.00">fLocationEntry</text>
<text text-anchor="middle" x="549" y="-156.5" font-family="Arial" font-size="10.00">(TGTextEntry)</text>
</g>
<!-- ProcLocation&#45;&gt;ProcLocationEntry -->
<g id="edge23" class="edge">
<title>ProcLocation&#45;&gt;ProcLocationEntry</title>
<path fill="none" stroke="#666666" stroke-width="1.5" d="M606.23,-220.82C596.61,-211.52 584.56,-199.88 574.01,-189.68"/>
<polygon fill="#666666" stroke="#666666" stroke-width="1.5" points="576.27,-186.99 566.65,-182.56 571.4,-192.02 576.27,-186.99"/>
</g>
<!-- ProcDataPathEntry -->
<g id="node20" class="node">
<title>ProcDataPathEntry</title>
<path fill="#dcedc1" stroke="black" d="M679,-182.5C679,-182.5 619,-182.5 619,-182.5 613,-182.5 607,-176.5 607,-170.5 607,-170.5 607,-158.5 607,-158.5 607,-152.5 613,-146.5 619,-146.5 619,-146.5 679,-146.5 679,-146.5 685,-146.5 691,-152.5 691,-158.5 691,-158.5 691,-170.5 691,-170.5 691,-176.5 685,-182.5 679,-182.5"/>
<text text-anchor="middle" x="649" y="-167.5" font-family="Arial" font-size="10.00">fDataPathEntry</text>
<text text-anchor="middle" x="649" y="-156.5" font-family="Arial" font-size="10.00">(TGTextEntry)</text>
</g>
<!-- ProcDataPath&#45;&gt;ProcDataPathEntry -->
<g id="edge24" class="edge">
<title>ProcDataPath&#45;&gt;ProcDataPathEntry</title>
<path fill="none" stroke="#666666" stroke-width="1.5" d="M726.83,-220.82C713.24,-211.16 696.09,-198.97 681.35,-188.5"/>
<polygon fill="#666666" stroke="#666666" stroke-width="1.5" points="683.18,-185.5 673,-182.56 679.12,-191.2 683.18,-185.5"/>
</g>
<!-- ProcBrowseBtn -->
<g id="node21" class="node">
<title>ProcBrowseBtn</title>
<path fill="#dcedc1" stroke="black" d="M780.5,-182.5C780.5,-182.5 721.5,-182.5 721.5,-182.5 715.5,-182.5 709.5,-176.5 709.5,-170.5 709.5,-170.5 709.5,-158.5 709.5,-158.5 709.5,-152.5 715.5,-146.5 721.5,-146.5 721.5,-146.5 780.5,-146.5 780.5,-146.5 786.5,-146.5 792.5,-152.5 792.5,-158.5 792.5,-158.5 792.5,-170.5 792.5,-170.5 792.5,-176.5 786.5,-182.5 780.5,-182.5"/>
<text text-anchor="middle" x="751" y="-167.5" font-family="Arial" font-size="10.00">Browse Button</text>
<text text-anchor="middle" x="751" y="-156.5" font-family="Arial" font-size="10.00">(TGTextButton)</text>
</g>
<!-- ProcDataPath&#45;&gt;ProcBrowseBtn -->
<g id="edge25" class="edge">
<title>ProcDataPath&#45;&gt;ProcBrowseBtn</title>
<path fill="none" stroke="#666666" stroke-width="1.5" d="M751,-220.82C751,-212.42 751,-202.12 751,-192.69"/>
<polygon fill="#666666" stroke="#666666" stroke-width="1.5" points="754.5,-192.56 751,-182.56 747.5,-192.56 754.5,-192.56"/>
</g>
<!-- ProcLatSlider -->
<g id="node23" class="node">
<title>ProcLatSlider</title>
<path fill="#dcedc1" stroke="black" d="M897.5,-182.5C897.5,-182.5 822.5,-182.5 822.5,-182.5 816.5,-182.5 810.5,-176.5 810.5,-170.5 810.5,-170.5 810.5,-158.5 810.5,-158.5 810.5,-152.5 816.5,-146.5 822.5,-146.5 822.5,-146.5 897.5,-146.5 897.5,-146.5 903.5,-146.5 909.5,-152.5 909.5,-158.5 909.5,-158.5 909.5,-170.5 909.5,-170.5 909.5,-176.5 903.5,-182.5 897.5,-182.5"/>
<text text-anchor="middle" x="860" y="-167.5" font-family="Arial" font-size="10.00">fLatSlider</text>
<text text-anchor="middle" x="860" y="-156.5" font-family="Arial" font-size="10.00">(TGDoubleHSlider)</text>
</g>
<!-- ProcLatRange&#45;&gt;ProcLatSlider -->
<g id="edge26" class="edge">
<title>ProcLatRange&#45;&gt;ProcLatSlider</title>
<path fill="none" stroke="#666666" stroke-width="1.5" d="M974.45,-220.82C953.53,-210.71 926.88,-197.83 904.56,-187.04"/>
<polygon fill="#666666" stroke="#666666" stroke-width="1.5" points="905.82,-183.76 895.29,-182.56 902.77,-190.06 905.82,-183.76"/>
</g>
<!-- ProcLatMinLabel -->
<g id="node24" class="node">
<title>ProcLatMinLabel</title>
<path fill="#dcedc1" stroke="black" d="M988,-182.5C988,-182.5 940,-182.5 940,-182.5 934,-182.5 928,-176.5 928,-170.5 928,-170.5 928,-158.5 928,-158.5 928,-152.5 934,-146.5 940,-146.5 940,-146.5 988,-146.5 988,-146.5 994,-146.5 1000,-152.5 1000,-158.5 1000,-158.5 1000,-170.5 1000,-170.5 1000,-176.5 994,-182.5 988,-182.5"/>
<text text-anchor="middle" x="964" y="-167.5" font-family="Arial" font-size="10.00">fLatMinLabel</text>
<text text-anchor="middle" x="964" y="-156.5" font-family="Arial" font-size="10.00">(TGLabel)</text>
</g>
<!-- ProcLatRange&#45;&gt;ProcLatMinLabel -->
<g id="edge27" class="edge">
<title>ProcLatRange&#45;&gt;ProcLatMinLabel</title>
<path fill="none" stroke="#666666" stroke-width="1.5" d="M999.1,-220.82C993.48,-211.97 986.53,-201 980.29,-191.17"/>
<polygon fill="#666666" stroke="#666666" stroke-width="1.5" points="983.14,-189.13 974.82,-182.56 977.23,-192.88 983.14,-189.13"/>
</g>
<!-- ProcLatMaxLabel -->
<g id="node25" class="node">
<title>ProcLatMaxLabel</title>
<path fill="#dcedc1" stroke="black" d="M1081.5,-182.5C1081.5,-182.5 1030.5,-182.5 1030.5,-182.5 1024.5,-182.5 1018.5,-176.5 1018.5,-170.5 1018.5,-170.5 1018.5,-158.5 1018.5,-158.5 1018.5,-152.5 1024.5,-146.5 1030.5,-146.5 1030.5,-146.5 1081.5,-146.5 1081.5,-146.5 1087.5,-146.5 1093.5,-152.5 1093.5,-158.5 1093.5,-158.5 1093.5,-170.5 1093.5,-170.5 1093.5,-176.5 1087.5,-182.5 1081.5,-182.5"/>
<text text-anchor="middle" x="1056" y="-167.5" font-family="Arial" font-size="10.00">fLatMaxLabel</text>
<text text-anchor="middle" x="1056" y="-156.5" font-family="Arial" font-size="10.00">(TGLabel)</text>
</g>
<!-- ProcLatRange&#45;&gt;ProcLatMaxLabel -->
<g id="edge28" class="edge">
<title>ProcLatRange&#45;&gt;ProcLatMaxLabel</title>
<path fill="none" stroke="#666666" stroke-width="1.5" d="M1020.9,-220.82C1026.52,-211.97 1033.47,-201 1039.71,-191.17"/>
<polygon fill="#666666" stroke="#666666" stroke-width="1.5" points="1042.77,-192.88 1045.18,-182.56 1036.86,-189.13 1042.77,-192.88"/>
</g>
<!-- ProcParamGrid -->
<g id="node27" class="node">
<title>ProcParamGrid</title>
<path fill="#dcedc1" stroke="black" d="M1194,-182.5C1194,-182.5 1124,-182.5 1124,-182.5 1118,-182.5 1112,-176.5 1112,-170.5 1112,-170.5 1112,-158.5 1112,-158.5 1112,-152.5 1118,-146.5 1124,-146.5 1124,-146.5 1194,-146.5 1194,-146.5 1200,-146.5 1206,-152.5 1206,-158.5 1206,-158.5 1206,-170.5 1206,-170.5 1206,-176.5 1200,-182.5 1194,-182.5"/>
<text text-anchor="middle" x="1159" y="-167.5" font-family="Arial" font-size="10.00">fParamGrid</text>
<text text-anchor="middle" x="1159" y="-156.5" font-family="Arial" font-size="10.00">(TGNumberEntry)</text>
</g>
<!-- ProcParams&#45;&gt;ProcParamGrid -->
<g id="edge29" class="edge">
<title>ProcParams&#45;&gt;ProcParamGrid</title>
<path fill="none" stroke="#666666" stroke-width="1.5" d="M1244.46,-220.82C1229.39,-211.07 1210.35,-198.74 1194.07,-188.2"/>
<polygon fill="#666666" stroke="#666666" stroke-width="1.5" points="1195.65,-185.05 1185.35,-182.56 1191.84,-190.93 1195.65,-185.05"/>
</g>
<!-- ProcParamEvents -->
<g id="node28" class="node">
<title>ProcParamEvents</title>
<path fill="#dcedc1" stroke="black" d="M1306,-182.5C1306,-182.5 1236,-182.5 1236,-182.5 1230,-182.5 1224,-176.5 1224,-170.5 1224,-170.5 1224,-158.5 1224,-158.5 1224,-152.5 1230,-146.5 1236,-146.5 1236,-146.5 1306,-146.5 1306,-146.5 1312,-146.5 1318,-152.5 1318,-158.5 1318,-158.5 1318,-170.5 1318,-170.5 1318,-176.5 1312,-182.5 1306,-182.5"/>
<text text-anchor="middle" x="1271" y="-167.5" font-family="Arial" font-size="10.00">fParamEvents</text>
<text text-anchor="middle" x="1271" y="-156.5" font-family="Arial" font-size="10.00">(TGNumberEntry)</text>
</g>
<!-- ProcParams&#45;&gt;ProcParamEvents -->
<g id="edge30" class="edge">
<title>ProcParams&#45;&gt;ProcParamEvents</title>
<path fill="none" stroke="#666666" stroke-width="1.5" d="M1271,-220.82C1271,-212.42 1271,-202.12 1271,-192.69"/>
<polygon fill="#666666" stroke="#666666" stroke-width="1.5" points="1274.5,-192.56 1271,-182.56 1267.5,-192.56 1274.5,-192.56"/>
</g>
<!-- ProcParamThreads -->
<g id="node29" class="node">
<title>ProcParamThreads</title>
<path fill="#dcedc1" stroke="black" d="M1418,-182.5C1418,-182.5 1348,-182.5 1348,-182.5 1342,-182.5 1336,-176.5 1336,-170.5 1336,-170.5 1336,-158.5 1336,-158.5 1336,-152.5 1342,-146.5 1348,-146.5 1348,-146.5 1418,-146.5 1418,-146.5 1424,-146.5 1430,-152.5 1430,-158.5 1430,-158.5 1430,-170.5 1430,-170.5 1430,-176.5 1424,-182.5 1418,-182.5"/>
<text text-anchor="middle" x="1383" y="-167.5" font-family="Arial" font-size="10.00">fParamThreads</text>
<text text-anchor="middle" x="1383" y="-156.5" font-family="Arial" font-size="10.00">(TGNumberEntry)</text>
</g>
<!-- ProcParams&#45;&gt;ProcParamThreads -->
<g id="edge31" class="edge">
<title>ProcParams&#45;&gt;ProcParamThreads</title>
<path fill="none" stroke="#666666" stroke-width="1.5" d="M1297.54,-220.82C1312.61,-211.07 1331.65,-198.74 1347.93,-188.2"/>
<polygon fill="#666666" stroke="#666666" stroke-width="1.5" points="1350.16,-190.93 1356.65,-182.56 1346.35,-185.05 1350.16,-190.93"/>
</g>
<!-- ProcSilentBtn -->
<g id="node31" class="node">
<title>ProcSilentBtn</title>
<path fill="#dcedc1" stroke="black" d="M1533.5,-182.5C1533.5,-182.5 1460.5,-182.5 1460.5,-182.5 1454.5,-182.5 1448.5,-176.5 1448.5,-170.5 1448.5,-170.5 1448.5,-158.5 1448.5,-158.5 1448.5,-152.5 1454.5,-146.5 1460.5,-146.5 1460.5,-146.5 1533.5,-146.5 1533.5,-146.5 1539.5,-146.5 1545.5,-152.5 1545.5,-158.5 1545.5,-158.5 1545.5,-170.5 1545.5,-170.5 1545.5,-176.5 1539.5,-182.5 1533.5,-182.5"/>
<text text-anchor="middle" x="1497" y="-167.5" font-family="Arial" font-size="10.00">fSilentModeButton</text>
<text text-anchor="middle" x="1497" y="-156.5" font-family="Arial" font-size="10.00">(TGTextButton)</text>
</g>
<!-- ProcPerf&#45;&gt;ProcSilentBtn -->
<g id="edge32" class="edge">
<title>ProcPerf&#45;&gt;ProcSilentBtn</title>
<path fill="none" stroke="#666666" stroke-width="1.5" d="M1497,-220.82C1497,-212.42 1497,-202.12 1497,-192.69"/>
<polygon fill="#666666" stroke="#666666" stroke-width="1.5" points="1500.5,-192.56 1497,-182.56 1493.5,-192.56 1500.5,-192.56"/>
</g>
<!-- ProcNotifBtn -->
<g id="node32" class="node">
<title>ProcNotifBtn</title>
<path fill="#dcedc1" stroke="black" d="M1650,-182.5C1650,-182.5 1576,-182.5 1576,-182.5 1570,-182.5 1564,-176.5 1564,-170.5 1564,-170.5 1564,-158.5 1564,-158.5 1564,-152.5 1570,-146.5 1576,-146.5 1576,-146.5 1650,-146.5 1650,-146.5 1656,-146.5 1662,-152.5 1662,-158.5 1662,-158.5 1662,-170.5 1662,-170.5 1662,-176.5 1656,-182.5 1650,-182.5"/>
<text text-anchor="middle" x="1613" y="-167.5" font-family="Arial" font-size="10.00">fNotificationButton</text>
<text text-anchor="middle" x="1613" y="-156.5" font-family="Arial" font-size="10.00">(TGTextButton)</text>
</g>
<!-- ProcPerf&#45;&gt;ProcNotifBtn -->
<g id="edge33" class="edge">
<title>ProcPerf&#45;&gt;ProcNotifBtn</title>
<path fill="none" stroke="#666666" stroke-width="1.5" d="M1524.49,-220.82C1540.24,-210.98 1560.18,-198.51 1577.14,-187.91"/>
<polygon fill="#666666" stroke="#666666" stroke-width="1.5" points="1579.08,-190.83 1585.71,-182.56 1575.37,-184.89 1579.08,-190.83"/>
</g>
<!-- ProcRunBtn -->
<g id="node34" class="node">
<title>ProcRunBtn</title>
<path fill="#dcedc1" stroke="black" d="M1751.5,-182.5C1751.5,-182.5 1692.5,-182.5 1692.5,-182.5 1686.5,-182.5 1680.5,-176.5 1680.5,-170.5 1680.5,-170.5 1680.5,-158.5 1680.5,-158.5 1680.5,-152.5 1686.5,-146.5 1692.5,-146.5 1692.5,-146.5 1751.5,-146.5 1751.5,-146.5 1757.5,-146.5 1763.5,-152.5 1763.5,-158.5 1763.5,-158.5 1763.5,-170.5 1763.5,-170.5 1763.5,-176.5 1757.5,-182.5 1751.5,-182.5"/>
<text text-anchor="middle" x="1722" y="-167.5" font-family="Arial" font-size="10.00">fRunButton</text>
<text text-anchor="middle" x="1722" y="-156.5" font-family="Arial" font-size="10.00">(TGTextButton)</text>
</g>
<!-- ProcButtons&#45;&gt;ProcRunBtn -->
<g id="edge34" class="edge">
<title>ProcButtons&#45;&gt;ProcRunBtn</title>
<path fill="none" stroke="#666666" stroke-width="1.5" d="M1722,-220.82C1722,-212.42 1722,-202.12 1722,-192.69"/>
<polygon fill="#666666" stroke="#666666" stroke-width="1.5" points="1725.5,-192.56 1722,-182.56 1718.5,-192.56 1725.5,-192.56"/>
</g>
<!-- ProcCancelBtn -->
<g id="node35" class="node">
<title>ProcCancelBtn</title>
<path fill="#dcedc1" stroke="black" d="M1852.5,-182.5C1852.5,-182.5 1793.5,-182.5 1793.5,-182.5 1787.5,-182.5 1781.5,-176.5 1781.5,-170.5 1781.5,-170.5 1781.5,-158.5 1781.5,-158.5 1781.5,-152.5 1787.5,-146.5 1793.5,-146.5 1793.5,-146.5 1852.5,-146.5 1852.5,-146.5 1858.5,-146.5 1864.5,-152.5 1864.5,-158.5 1864.5,-158.5 1864.5,-170.5 1864.5,-170.5 1864.5,-176.5 1858.5,-182.5 1852.5,-182.5"/>
<text text-anchor="middle" x="1823" y="-167.5" font-family="Arial" font-size="10.00">fCancelButton</text>
<text text-anchor="middle" x="1823" y="-156.5" font-family="Arial" font-size="10.00">(TGTextButton)</text>
</g>
<!-- ProcButtons&#45;&gt;ProcCancelBtn -->
<g id="edge35" class="edge">
<title>ProcButtons&#45;&gt;ProcCancelBtn</title>
<path fill="none" stroke="#666666" stroke-width="1.5" d="M1745.94,-220.82C1759.39,-211.16 1776.37,-198.97 1790.96,-188.5"/>
<polygon fill="#666666" stroke="#666666" stroke-width="1.5" points="1793.15,-191.23 1799.24,-182.56 1789.07,-185.55 1793.15,-191.23"/>
</g>
<!-- ProcLogView -->
<g id="node37" class="node">
<title>ProcLogView</title>
<path fill="#dcedc1" stroke="black" d="M1947.5,-182.5C1947.5,-182.5 1894.5,-182.5 1894.5,-182.5 1888.5,-182.5 1882.5,-176.5 1882.5,-170.5 1882.5,-170.5 1882.5,-158.5 1882.5,-158.5 1882.5,-152.5 1888.5,-146.5 1894.5,-146.5 1894.5,-146.5 1947.5,-146.5 1947.5,-146.5 1953.5,-146.5 1959.5,-152.5 1959.5,-158.5 1959.5,-158.5 1959.5,-170.5 1959.5,-170.5 1959.5,-176.5 1953.5,-182.5 1947.5,-182.5"/>
<text text-anchor="middle" x="1921" y="-167.5" font-family="Arial" font-size="10.00">fLogView</text>
<text text-anchor="middle" x="1921" y="-156.5" font-family="Arial" font-size="10.00">(TGTextView)</text>
</g>
<!-- ProcLog&#45;&gt;ProcLogView -->
<g id="edge36" class="edge">
<title>ProcLog&#45;&gt;ProcLogView</title>
<path fill="none" stroke="#666666" stroke-width="1.5" d="M1883.61,-220.82C1889.65,-211.88 1897.16,-200.78 1903.85,-190.87"/>
<polygon fill="#666666" stroke="#666666" stroke-width="1.5" points="1906.77,-192.8 1909.47,-182.56 1900.97,-188.88 1906.77,-192.8"/>
</g>
<!-- GraphPathEntry -->
<g id="node39" class="node">
<title>GraphPathEntry</title>
<path fill="#d5c6e0" stroke="black" d="M2054.5,-182.5C2054.5,-182.5 1989.5,-182.5 1989.5,-182.5 1983.5,-182.5 1977.5,-176.5 1977.5,-170.5 1977.5,-170.5 1977.5,-158.5 1977.5,-158.5 1977.5,-152.5 1983.5,-146.5 1989.5,-146.5 1989.5,-146.5 2054.5,-146.5 2054.5,-146.5 2060.5,-146.5 2066.5,-152.5 2066.5,-158.5 2066.5,-158.5 2066.5,-170.5 2066.5,-170.5 2066.5,-176.5 2060.5,-182.5 2054.5,-182.5"/>
<text text-anchor="middle" x="2022" y="-167.5" font-family="Arial" font-size="10.00">fGraphPathEntry</text>
<text text-anchor="middle" x="2022" y="-156.5" font-family="Arial" font-size="10.00">(TGTextEntry)</text>
</g>
<!-- GraphDir&#45;&gt;GraphPathEntry -->
<g id="edge42" class="edge">
<title>GraphDir&#45;&gt;GraphPathEntry</title>
<path fill="none" stroke="#666666" stroke-width="1.5" d="M2140.27,-220.82C2118.55,-210.66 2090.86,-197.71 2067.74,-186.89"/>
<polygon fill="#666666" stroke="#666666" stroke-width="1.5" points="2069.01,-183.62 2058.47,-182.56 2066.04,-189.97 2069.01,-183.62"/>
</g>
<!-- GraphBrowseBtn -->
<g id="node40" class="node">
<title>GraphBrowseBtn</title>
<path fill="#d5c6e0" stroke="black" d="M2155.5,-182.5C2155.5,-182.5 2096.5,-182.5 2096.5,-182.5 2090.5,-182.5 2084.5,-176.5 2084.5,-170.5 2084.5,-170.5 2084.5,-158.5 2084.5,-158.5 2084.5,-152.5 2090.5,-146.5 2096.5,-146.5 2096.5,-146.5 2155.5,-146.5 2155.5,-146.5 2161.5,-146.5 2167.5,-152.5 2167.5,-158.5 2167.5,-158.5 2167.5,-170.5 2167.5,-170.5 2167.5,-176.5 2161.5,-182.5 2155.5,-182.5"/>
<text text-anchor="middle" x="2126" y="-167.5" font-family="Arial" font-size="10.00">Browse Button</text>
<text text-anchor="middle" x="2126" y="-156.5" font-family="Arial" font-size="10.00">(TGTextButton)</text>
</g>
<!-- GraphDir&#45;&gt;GraphBrowseBtn -->
<g id="edge43" class="edge">
<title>GraphDir&#45;&gt;GraphBrowseBtn</title>
<path fill="none" stroke="#666666" stroke-width="1.5" d="M2164.91,-220.82C2158.63,-211.88 2150.82,-200.78 2143.85,-190.87"/>
<polygon fill="#666666" stroke="#666666" stroke-width="1.5" points="2146.62,-188.72 2138,-182.56 2140.89,-192.75 2146.62,-188.72"/>
</g>
<!-- GraphRefreshBtn -->
<g id="node41" class="node">
<title>GraphRefreshBtn</title>
<path fill="#d5c6e0" stroke="black" d="M2256.5,-182.5C2256.5,-182.5 2197.5,-182.5 2197.5,-182.5 2191.5,-182.5 2185.5,-176.5 2185.5,-170.5 2185.5,-170.5 2185.5,-158.5 2185.5,-158.5 2185.5,-152.5 2191.5,-146.5 2197.5,-146.5 2197.5,-146.5 2256.5,-146.5 2256.5,-146.5 2262.5,-146.5 2268.5,-152.5 2268.5,-158.5 2268.5,-158.5 2268.5,-170.5 2268.5,-170.5 2268.5,-176.5 2262.5,-182.5 2256.5,-182.5"/>
<text text-anchor="middle" x="2227" y="-167.5" font-family="Arial" font-size="10.00">fRefreshButton</text>
<text text-anchor="middle" x="2227" y="-156.5" font-family="Arial" font-size="10.00">(TGTextButton)</text>
</g>
<!-- GraphDir&#45;&gt;GraphRefreshBtn -->
<g id="edge44" class="edge">
<title>GraphDir&#45;&gt;GraphRefreshBtn</title>
<path fill="none" stroke="#666666" stroke-width="1.5" d="M2188.85,-220.82C2195.01,-211.88 2202.67,-200.78 2209.5,-190.87"/>
<polygon fill="#666666" stroke="#666666" stroke-width="1.5" points="2212.44,-192.78 2215.24,-182.56 2206.68,-188.8 2212.44,-192.78"/>
</g>
<!-- GraphFilterEntry -->
<g id="node43" class="node">
<title>GraphFilterEntry</title>
<path fill="#d5c6e0" stroke="black" d="M2367,-182.5C2367,-182.5 2299,-182.5 2299,-182.5 2293,-182.5 2287,-176.5 2287,-170.5 2287,-170.5 2287,-158.5 2287,-158.5 2287,-152.5 2293,-146.5 2299,-146.5 2299,-146.5 2367,-146.5 2367,-146.5 2373,-146.5 2379,-152.5 2379,-158.5 2379,-158.5 2379,-170.5 2379,-170.5 2379,-176.5 2373,-182.5 2367,-182.5"/>
<text text-anchor="middle" x="2333" y="-167.5" font-family="Arial" font-size="10.00">fFolderFilterEntry</text>
<text text-anchor="middle" x="2333" y="-156.5" font-family="Arial" font-size="10.00">(TGTextEntry)</text>
</g>
<!-- GraphFilter&#45;&gt;GraphFilterEntry -->
<g id="edge45" class="edge">
<title>GraphFilter&#45;&gt;GraphFilterEntry</title>
<path fill="none" stroke="#666666" stroke-width="1.5" d="M2452.79,-220.82C2430.8,-210.66 2402.75,-197.71 2379.33,-186.89"/>
<polygon fill="#666666" stroke="#666666" stroke-width="1.5" points="2380.49,-183.57 2369.94,-182.56 2377.55,-189.93 2380.49,-183.57"/>
</g>
<!-- GraphApplyBtn -->
<g id="node44" class="node">
<title>GraphApplyBtn</title>
<path fill="#d5c6e0" stroke="black" d="M2468.5,-182.5C2468.5,-182.5 2409.5,-182.5 2409.5,-182.5 2403.5,-182.5 2397.5,-176.5 2397.5,-170.5 2397.5,-170.5 2397.5,-158.5 2397.5,-158.5 2397.5,-152.5 2403.5,-146.5 2409.5,-146.5 2409.5,-146.5 2468.5,-146.5 2468.5,-146.5 2474.5,-146.5 2480.5,-152.5 2480.5,-158.5 2480.5,-158.5 2480.5,-170.5 2480.5,-170.5 2480.5,-176.5 2474.5,-182.5 2468.5,-182.5"/>
<text text-anchor="middle" x="2439" y="-167.5" font-family="Arial" font-size="10.00">Apply Button</text>
<text text-anchor="middle" x="2439" y="-156.5" font-family="Arial" font-size="10.00">(TGTextButton)</text>
</g>
<!-- GraphFilter&#45;&gt;GraphApplyBtn -->
<g id="edge46" class="edge">
<title>GraphFilter&#45;&gt;GraphApplyBtn</title>
<path fill="none" stroke="#666666" stroke-width="1.5" d="M2477.91,-220.82C2471.63,-211.88 2463.82,-200.78 2456.85,-190.87"/>
<polygon fill="#666666" stroke="#666666" stroke-width="1.5" points="2459.62,-188.72 2451,-182.56 2453.89,-192.75 2459.62,-188.72"/>
</g>
<!-- GraphClearBtn -->
<g id="node45" class="node">
<title>GraphClearBtn</title>
<path fill="#d5c6e0" stroke="black" d="M2579.5,-182.5C2579.5,-182.5 2510.5,-182.5 2510.5,-182.5 2504.5,-182.5 2498.5,-176.5 2498.5,-170.5 2498.5,-170.5 2498.5,-158.5 2498.5,-158.5 2498.5,-152.5 2504.5,-146.5 2510.5,-146.5 2510.5,-146.5 2579.5,-146.5 2579.5,-146.5 2585.5,-146.5 2591.5,-152.5 2591.5,-158.5 2591.5,-158.5 2591.5,-170.5 2591.5,-170.5 2591.5,-176.5 2585.5,-182.5 2579.5,-182.5"/>
<text text-anchor="middle" x="2545" y="-167.5" font-family="Arial" font-size="10.00">fClearFilterButton</text>
<text text-anchor="middle" x="2545" y="-156.5" font-family="Arial" font-size="10.00">(TGTextButton)</text>
</g>
<!-- GraphFilter&#45;&gt;GraphClearBtn -->
<g id="edge47" class="edge">
<title>GraphFilter&#45;&gt;GraphClearBtn</title>
<path fill="none" stroke="#666666" stroke-width="1.5" d="M2503.03,-220.82C2509.88,-211.79 2518.41,-200.55 2525.98,-190.57"/>
<polygon fill="#666666" stroke="#666666" stroke-width="1.5" points="2528.8,-192.64 2532.06,-182.56 2523.23,-188.41 2528.8,-192.64"/>
</g>
<!-- GraphSkimFrame -->
<g id="node47" class="node">
<title>GraphSkimFrame</title>
<path fill="#d5c6e0" stroke="black" d="M2682,-182.5C2682,-182.5 2622,-182.5 2622,-182.5 2616,-182.5 2610,-176.5 2610,-170.5 2610,-170.5 2610,-158.5 2610,-158.5 2610,-152.5 2616,-146.5 2622,-146.5 2622,-146.5 2682,-146.5 2682,-146.5 2688,-146.5 2694,-152.5 2694,-158.5 2694,-158.5 2694,-170.5 2694,-170.5 2694,-176.5 2688,-182.5 2682,-182.5"/>
<text text-anchor="middle" x="2652" y="-167.5" font-family="Arial" font-size="10.00">TGGroupFrame</text>
<text text-anchor="middle" x="2652" y="-156.5" font-family="Arial" font-size="10.00">(Skim Folders)</text>
</g>
<!-- GraphLists&#45;&gt;GraphSkimFrame -->
<g id="edge48" class="edge">
<title>GraphLists&#45;&gt;GraphSkimFrame</title>
<path fill="none" stroke="#666666" stroke-width="1.5" d="M2652,-220.82C2652,-212.42 2652,-202.12 2652,-192.69"/>
<polygon fill="#666666" stroke="#666666" stroke-width="1.5" points="2655.5,-192.56 2652,-182.56 2648.5,-192.56 2655.5,-192.56"/>
</g>
<!-- GraphFileFrame -->
<g id="node49" class="node">
<title>GraphFileFrame</title>
<path fill="#d5c6e0" stroke="black" d="M2784,-182.5C2784,-182.5 2724,-182.5 2724,-182.5 2718,-182.5 2712,-176.5 2712,-170.5 2712,-170.5 2712,-158.5 2712,-158.5 2712,-152.5 2718,-146.5 2724,-146.5 2724,-146.5 2784,-146.5 2784,-146.5 2790,-146.5 2796,-152.5 2796,-158.5 2796,-158.5 2796,-170.5 2796,-170.5 2796,-176.5 2790,-182.5 2784,-182.5"/>
<text text-anchor="middle" x="2754" y="-167.5" font-family="Arial" font-size="10.00">TGGroupFrame</text>
<text text-anchor="middle" x="2754" y="-156.5" font-family="Arial" font-size="10.00">(File Info)</text>
</g>
<!-- GraphLists&#45;&gt;GraphFileFrame -->
<g id="edge49" class="edge">
<title>GraphLists&#45;&gt;GraphFileFrame</title>
<path fill="none" stroke="#666666" stroke-width="1.5" d="M2676.17,-220.82C2689.76,-211.16 2706.91,-198.97 2721.65,-188.5"/>
<polygon fill="#666666" stroke="#666666" stroke-width="1.5" points="2723.88,-191.2 2730,-182.56 2719.82,-185.5 2723.88,-191.2"/>
</g>
<!-- GraphFolderList -->
<g id="node48" class="node">
<title>GraphFolderList</title>
<path fill="#e8dff5" stroke="black" d="M2680,-108C2680,-108 2624,-108 2624,-108 2618,-108 2612,-102 2612,-96 2612,-96 2612,-84 2612,-84 2612,-78 2618,-72 2624,-72 2624,-72 2680,-72 2680,-72 2686,-72 2692,-78 2692,-84 2692,-84 2692,-96 2692,-96 2692,-102 2686,-108 2680,-108"/>
<text text-anchor="middle" x="2652" y="-93" font-family="Arial" font-size="10.00">fFolderListBox</text>
<text text-anchor="middle" x="2652" y="-82" font-family="Arial" font-size="10.00">(TGListBox)</text>
</g>
<!-- GraphSkimFrame&#45;&gt;GraphFolderList -->
<g id="edge50" class="edge">
<title>GraphSkimFrame&#45;&gt;GraphFolderList</title>
<path fill="none" stroke="#666666" stroke-width="1.5" d="M2652,-146.32C2652,-137.92 2652,-127.62 2652,-118.19"/>
<polygon fill="#666666" stroke="#666666" stroke-width="1.5" points="2655.5,-118.06 2652,-108.06 2648.5,-118.06 2655.5,-118.06"/>
</g>
<!-- GraphFileList -->
<g id="node50" class="node">
<title>GraphFileList</title>
<path fill="#e8dff5" stroke="black" d="M2776.5,-108C2776.5,-108 2731.5,-108 2731.5,-108 2725.5,-108 2719.5,-102 2719.5,-96 2719.5,-96 2719.5,-84 2719.5,-84 2719.5,-78 2725.5,-72 2731.5,-72 2731.5,-72 2776.5,-72 2776.5,-72 2782.5,-72 2788.5,-78 2788.5,-84 2788.5,-84 2788.5,-96 2788.5,-96 2788.5,-102 2782.5,-108 2776.5,-108"/>
<text text-anchor="middle" x="2754" y="-93" font-family="Arial" font-size="10.00">fFileListBox</text>
<text text-anchor="middle" x="2754" y="-82" font-family="Arial" font-size="10.00">(TGListBox)</text>
</g>
<!-- GraphFileFrame&#45;&gt;GraphFileList -->
<g id="edge51" class="edge">
<title>GraphFileFrame&#45;&gt;GraphFileList</title>
<path fill="none" stroke="#666666" stroke-width="1.5" d="M2754,-146.32C2754,-137.92 2754,-127.62 2754,-118.19"/>
<polygon fill="#666666" stroke="#666666" stroke-width="1.5" points="2757.5,-118.06 2754,-108.06 2750.5,-118.06 2757.5,-118.06"/>
</g>
<!-- GraphCanvas -->
<g id="node53" class="node">
<title>GraphCanvas</title>
<path fill="#d5c6e0" stroke="black" d="M2932,-182.5C2932,-182.5 2826,-182.5 2826,-182.5 2820,-182.5 2814,-176.5 2814,-170.5 2814,-170.5 2814,-158.5 2814,-158.5 2814,-152.5 2820,-146.5 2826,-146.5 2826,-146.5 2932,-146.5 2932,-146.5 2938,-146.5 2944,-152.5 2944,-158.5 2944,-158.5 2944,-170.5 2944,-170.5 2944,-176.5 2938,-182.5 2932,-182.5"/>
<text text-anchor="middle" x="2879" y="-167.5" font-family="Arial" font-size="10.00">fGraphCanvas</text>
<text text-anchor="middle" x="2879" y="-156.5" font-family="Arial" font-size="10.00">(TRootEmbeddedCanvas)</text>
</g>
<!-- GraphDisplay&#45;&gt;GraphCanvas -->
<g id="edge52" class="edge">
<title>GraphDisplay&#45;&gt;GraphCanvas</title>
<path fill="none" stroke="#666666" stroke-width="1.5" d="M2875.18,-220.82C2875.76,-212.42 2876.47,-202.12 2877.13,-192.69"/>
<polygon fill="#666666" stroke="#666666" stroke-width="1.5" points="2880.63,-192.78 2877.82,-182.56 2873.64,-192.29 2880.63,-192.78"/>
</g>
<!-- MacroSelector -->
<g id="node55" class="node">
<title>MacroSelector</title>
<path fill="#ffeaa7" stroke="black" d="M3035.5,-182.5C3035.5,-182.5 2974.5,-182.5 2974.5,-182.5 2968.5,-182.5 2962.5,-176.5 2962.5,-170.5 2962.5,-170.5 2962.5,-158.5 2962.5,-158.5 2962.5,-152.5 2968.5,-146.5 2974.5,-146.5 2974.5,-146.5 3035.5,-146.5 3035.5,-146.5 3041.5,-146.5 3047.5,-152.5 3047.5,-158.5 3047.5,-158.5 3047.5,-170.5 3047.5,-170.5 3047.5,-176.5 3041.5,-182.5 3035.5,-182.5"/>
<text text-anchor="middle" x="3005" y="-167.5" font-family="Arial" font-size="10.00">fMacroSelector</text>
<text text-anchor="middle" x="3005" y="-156.5" font-family="Arial" font-size="10.00">(TGComboBox)</text>
</g>
<!-- MacroSel&#45;&gt;MacroSelector -->
<g id="edge57" class="edge">
<title>MacroSel&#45;&gt;MacroSelector</title>
<path fill="none" stroke="#666666" stroke-width="1.5" d="M3042.39,-220.82C3036.35,-211.88 3028.84,-200.78 3022.15,-190.87"/>
<polygon fill="#666666" stroke="#666666" stroke-width="1.5" points="3025.03,-188.88 3016.53,-182.56 3019.23,-192.8 3025.03,-188.88"/>
</g>
<!-- MacroParam1 -->
<g id="node57" class="node">
<title>MacroParam1</title>
<path fill="#ffeaa7" stroke="black" d="M3148,-182.5C3148,-182.5 3078,-182.5 3078,-182.5 3072,-182.5 3066,-176.5 3066,-170.5 3066,-170.5 3066,-158.5 3066,-158.5 3066,-152.5 3072,-146.5 3078,-146.5 3078,-146.5 3148,-146.5 3148,-146.5 3154,-146.5 3160,-152.5 3160,-158.5 3160,-158.5 3160,-170.5 3160,-170.5 3160,-176.5 3154,-182.5 3148,-182.5"/>
<text text-anchor="middle" x="3113" y="-167.5" font-family="Arial" font-size="10.00">fMacroParam1</text>
<text text-anchor="middle" x="3113" y="-156.5" font-family="Arial" font-size="10.00">(TGNumberEntry)</text>
</g>
<!-- MacroParams&#45;&gt;MacroParam1 -->
<g id="edge58" class="edge">
<title>MacroParams&#45;&gt;MacroParam1</title>
<path fill="none" stroke="#666666" stroke-width="1.5" d="M3193.12,-220.82C3179.12,-211.16 3161.47,-198.97 3146.3,-188.5"/>
<polygon fill="#666666" stroke="#666666" stroke-width="1.5" points="3147.92,-185.36 3137.7,-182.56 3143.95,-191.12 3147.92,-185.36"/>
</g>
<!-- MacroParam2 -->
<g id="node58" class="node">
<title>MacroParam2</title>
<path fill="#ffeaa7" stroke="black" d="M3246,-182.5C3246,-182.5 3190,-182.5 3190,-182.5 3184,-182.5 3178,-176.5 3178,-170.5 3178,-170.5 3178,-158.5 3178,-158.5 3178,-152.5 3184,-146.5 3190,-146.5 3190,-146.5 3246,-146.5 3246,-146.5 3252,-146.5 3258,-152.5 3258,-158.5 3258,-158.5 3258,-170.5 3258,-170.5 3258,-176.5 3252,-182.5 3246,-182.5"/>
<text text-anchor="middle" x="3218" y="-167.5" font-family="Arial" font-size="10.00">fMacroParam2</text>
<text text-anchor="middle" x="3218" y="-156.5" font-family="Arial" font-size="10.00">(TGTextEntry)</text>
</g>
<!-- MacroParams&#45;&gt;MacroParam2 -->
<g id="edge59" class="edge">
<title>MacroParams&#45;&gt;MacroParam2</title>
<path fill="none" stroke="#666666" stroke-width="1.5" d="M3218,-220.82C3218,-212.42 3218,-202.12 3218,-192.69"/>
<polygon fill="#666666" stroke="#666666" stroke-width="1.5" points="3221.5,-192.56 3218,-182.56 3214.5,-192.56 3221.5,-192.56"/>
</g>
<!-- MacroParam3_11 -->
<g id="node59" class="node">
<title>MacroParam3_11</title>
<path fill="#ffeaa7" stroke="black" d="M3358,-185C3358,-185 3288,-185 3288,-185 3282,-185 3276,-179 3276,-173 3276,-173 3276,-156 3276,-156 3276,-150 3282,-144 3288,-144 3288,-144 3358,-144 3358,-144 3364,-144 3370,-150 3370,-156 3370,-156 3370,-173 3370,-173 3370,-179 3364,-185 3358,-185"/>
<text text-anchor="middle" x="3323" y="-173" font-family="Arial" font-size="10.00">fMacroParam3&#45;11</text>
<text text-anchor="middle" x="3323" y="-162" font-family="Arial" font-size="10.00">(TGNumberEntry)</text>
<text text-anchor="middle" x="3323" y="-151" font-family="Arial" font-size="10.00">(Dynamic)</text>
</g>
<!-- MacroParams&#45;&gt;MacroParam3_11 -->
<g id="edge60" class="edge">
<title>MacroParams&#45;&gt;MacroParam3_11</title>
<path fill="none" stroke="#666666" stroke-width="1.5" d="M3242.88,-220.82C3255.74,-211.94 3271.69,-200.93 3285.96,-191.08"/>
<polygon fill="#666666" stroke="#666666" stroke-width="1.5" points="3288.35,-193.68 3294.59,-185.12 3284.37,-187.92 3288.35,-193.68"/>
</g>
<!-- MacroRunBtn -->
<g id="node61" class="node">
<title>MacroRunBtn</title>
<path fill="#ffeaa7" stroke="black" d="M3469.5,-182.5C3469.5,-182.5 3400.5,-182.5 3400.5,-182.5 3394.5,-182.5 3388.5,-176.5 3388.5,-170.5 3388.5,-170.5 3388.5,-158.5 3388.5,-158.5 3388.5,-152.5 3394.5,-146.5 3400.5,-146.5 3400.5,-146.5 3469.5,-146.5 3469.5,-146.5 3475.5,-146.5 3481.5,-152.5 3481.5,-158.5 3481.5,-158.5 3481.5,-170.5 3481.5,-170.5 3481.5,-176.5 3475.5,-182.5 3469.5,-182.5"/>
<text text-anchor="middle" x="3435" y="-167.5" font-family="Arial" font-size="10.00">fRunMacroButton</text>
<text text-anchor="middle" x="3435" y="-156.5" font-family="Arial" font-size="10.00">(TGTextButton)</text>
</g>
<!-- MacroButtons&#45;&gt;MacroRunBtn -->
<g id="edge61" class="edge">
<title>MacroButtons&#45;&gt;MacroRunBtn</title>
<path fill="none" stroke="#666666" stroke-width="1.5" d="M3435,-220.82C3435,-212.42 3435,-202.12 3435,-192.69"/>
<polygon fill="#666666" stroke="#666666" stroke-width="1.5" points="3438.5,-192.56 3435,-182.56 3431.5,-192.56 3438.5,-192.56"/>
</g>
<!-- MacroCancelBtn -->
<g id="node62" class="node">
<title>MacroCancelBtn</title>
<path fill="#ffeaa7" stroke="black" d="M3594,-182.5C3594,-182.5 3512,-182.5 3512,-182.5 3506,-182.5 3500,-176.5 3500,-170.5 3500,-170.5 3500,-158.5 3500,-158.5 3500,-152.5 3506,-146.5 3512,-146.5 3512,-146.5 3594,-146.5 3594,-146.5 3600,-146.5 3606,-152.5 3606,-158.5 3606,-158.5 3606,-170.5 3606,-170.5 3606,-176.5 3600,-182.5 3594,-182.5"/>
<text text-anchor="middle" x="3553" y="-167.5" font-family="Arial" font-size="10.00">fCancelMacroButton</text>
<text text-anchor="middle" x="3553" y="-156.5" font-family="Arial" font-size="10.00">(TGTextButton)</text>
</g>
<!-- MacroButtons&#45;&gt;MacroCancelBtn -->
<g id="edge62" class="edge">
<title>MacroButtons&#45;&gt;MacroCancelBtn</title>
<path fill="none" stroke="#666666" stroke-width="1.5" d="M3462.96,-220.82C3478.98,-210.98 3499.27,-198.51 3516.53,-187.91"/>
<polygon fill="#666666" stroke="#666666" stroke-width="1.5" points="3518.55,-190.78 3525.24,-182.56 3514.88,-184.81 3518.55,-190.78"/>
</g>
<!-- MacroLogView -->
<g id="node64" class="node">
<title>MacroLogView</title>
<path fill="#ffeaa7" stroke="black" d="M3696,-182.5C3696,-182.5 3636,-182.5 3636,-182.5 3630,-182.5 3624,-176.5 3624,-170.5 3624,-170.5 3624,-158.5 3624,-158.5 3624,-152.5 3630,-146.5 3636,-146.5 3636,-146.5 3696,-146.5 3696,-146.5 3702,-146.5 3708,-152.5 3708,-158.5 3708,-158.5 3708,-170.5 3708,-170.5 3708,-176.5 3702,-182.5 3696,-182.5"/>
<text text-anchor="middle" x="3666" y="-167.5" font-family="Arial" font-size="10.00">fMacroLogView</text>
<text text-anchor="middle" x="3666" y="-156.5" font-family="Arial" font-size="10.00">(TGTextView)</text>
</g>
<!-- MacroLog&#45;&gt;MacroLogView -->
<g id="edge63" class="edge">
<title>MacroLog&#45;&gt;MacroLogView</title>
<path fill="none" stroke="#666666" stroke-width="1.5" d="M3640.06,-220.82C3644.12,-212.15 3649.14,-201.45 3653.68,-191.78"/>
<polygon fill="#666666" stroke="#666666" stroke-width="1.5" points="3656.92,-193.1 3658,-182.56 3650.59,-190.13 3656.92,-193.1"/>
</g>
<!-- ViewO3DataSel -->
<g id="node66" class="node">
<title>ViewO3DataSel</title>
<path fill="#a29bfe" stroke="black" d="M3801.5,-182.5C3801.5,-182.5 3738.5,-182.5 3738.5,-182.5 3732.5,-182.5 3726.5,-176.5 3726.5,-170.5 3726.5,-170.5 3726.5,-158.5 3726.5,-158.5 3726.5,-152.5 3732.5,-146.5 3738.5,-146.5 3738.5,-146.5 3801.5,-146.5 3801.5,-146.5 3807.5,-146.5 3813.5,-152.5 3813.5,-158.5 3813.5,-158.5 3813.5,-170.5 3813.5,-170.5 3813.5,-176.5 3807.5,-182.5 3801.5,-182.5"/>
<text text-anchor="middle" x="3770" y="-167.5" font-family="Arial" font-size="10.00">TGGroupFrame</text>
<text text-anchor="middle" x="3770" y="-156.5" font-family="Arial" font-size="10.00">(Data Selection)</text>
</g>
<!-- ViewO3Control&#45;&gt;ViewO3DataSel -->
<g id="edge66" class="edge">
<title>ViewO3Control&#45;&gt;ViewO3DataSel</title>
<path fill="none" stroke="#666666" stroke-width="1.5" d="M3795.94,-220.82C3791.88,-212.15 3786.86,-201.45 3782.32,-191.78"/>
<polygon fill="#666666" stroke="#666666" stroke-width="1.5" points="3785.41,-190.13 3778,-182.56 3779.08,-193.1 3785.41,-190.13"/>
</g>
<!-- ViewO3Display -->
<g id="node71" class="node">
<title>ViewO3Display</title>
<path fill="#a29bfe" stroke="black" d="M4084,-182.5C4084,-182.5 4016,-182.5 4016,-182.5 4010,-182.5 4004,-176.5 4004,-170.5 4004,-170.5 4004,-158.5 4004,-158.5 4004,-152.5 4010,-146.5 4016,-146.5 4016,-146.5 4084,-146.5 4084,-146.5 4090,-146.5 4096,-152.5 4096,-158.5 4096,-158.5 4096,-170.5 4096,-170.5 4096,-176.5 4090,-182.5 4084,-182.5"/>
<text text-anchor="middle" x="4050" y="-167.5" font-family="Arial" font-size="10.00">TGGroupFrame</text>
<text text-anchor="middle" x="4050" y="-156.5" font-family="Arial" font-size="10.00">(Display Options)</text>
</g>
<!-- ViewO3Control&#45;&gt;ViewO3Display -->
<g id="edge67" class="edge">
<title>ViewO3Control&#45;&gt;ViewO3Display</title>
<path fill="none" stroke="#666666" stroke-width="1.5" d="M3855.27,-222.89C3895.81,-210.94 3952.34,-194.28 3994.05,-181.99"/>
<polygon fill="#666666" stroke="#666666" stroke-width="1.5" points="3995.17,-185.31 4003.78,-179.12 3993.2,-178.59 3995.17,-185.31"/>
</g>
<!-- ViewO3Actions -->
<g id="node78" class="node">
<title>ViewO3Actions</title>
<path fill="#a29bfe" stroke="black" d="M4625,-182.5C4625,-182.5 4565,-182.5 4565,-182.5 4559,-182.5 4553,-176.5 4553,-170.5 4553,-170.5 4553,-158.5 4553,-158.5 4553,-152.5 4559,-146.5 4565,-146.5 4565,-146.5 4625,-146.5 4625,-146.5 4631,-146.5 4637,-152.5 4637,-158.5 4637,-158.5 4637,-170.5 4637,-170.5 4637,-176.5 4631,-182.5 4625,-182.5"/>
<text text-anchor="middle" x="4595" y="-167.5" font-family="Arial" font-size="10.00">TGGroupFrame</text>
<text text-anchor="middle" x="4595" y="-156.5" font-family="Arial" font-size="10.00">(Actions)</text>
</g>
<!-- ViewO3Control&#45;&gt;ViewO3Actions -->
<g id="edge68" class="edge">
<title>ViewO3Control&#45;&gt;ViewO3Actions</title>
<path fill="none" stroke="#666666" stroke-width="1.5" d="M3855.23,-222.76C3858.18,-222.1 3861.12,-221.51 3864,-221 4115.44,-176.3 4421.8,-167.58 4542.53,-165.89"/>
<polygon fill="#666666" stroke="#666666" stroke-width="1.5" points="4542.65,-169.39 4552.6,-165.76 4542.56,-162.39 4542.65,-169.39"/>
</g>
<!-- ViewO3LocationCombo -->
<g id="node67" class="node">
<title>ViewO3LocationCombo</title>
<path fill="#dfe6e9" stroke="black" d="M3536,-108C3536,-108 3472,-108 3472,-108 3466,-108 3460,-102 3460,-96 3460,-96 3460,-84 3460,-84 3460,-78 3466,-72 3472,-72 3472,-72 3536,-72 3536,-72 3542,-72 3548,-78 3548,-84 3548,-84 3548,-96 3548,-96 3548,-102 3542,-108 3536,-108"/>
<text text-anchor="middle" x="3504" y="-93" font-family="Arial" font-size="10.00">fLocationCombo</text>
<text text-anchor="middle" x="3504" y="-82" font-family="Arial" font-size="10.00">(TGComboBox)</text>
</g>
<!-- ViewO3DataSel&#45;&gt;ViewO3LocationCombo -->
<g id="edge69" class="edge">
<title>ViewO3DataSel&#45;&gt;ViewO3LocationCombo</title>
<path fill="none" stroke="#666666" stroke-width="1.5" d="M3726.48,-146.97C3723.29,-145.92 3720.1,-144.92 3717,-144 3650.09,-124.26 3629.12,-126.87 3558.04,-108.14"/>
<polygon fill="#666666" stroke="#666666" stroke-width="1.5" points="3558.72,-104.7 3548.16,-105.49 3556.91,-111.46 3558.72,-104.7"/>
</g>
<!-- ViewO3CategoryCombo -->
<g id="node68" class="node">
<title>ViewO3CategoryCombo</title>
<path fill="#dfe6e9" stroke="black" d="M3645.5,-108C3645.5,-108 3578.5,-108 3578.5,-108 3572.5,-108 3566.5,-102 3566.5,-96 3566.5,-96 3566.5,-84 3566.5,-84 3566.5,-78 3572.5,-72 3578.5,-72 3578.5,-72 3645.5,-72 3645.5,-72 3651.5,-72 3657.5,-78 3657.5,-84 3657.5,-84 3657.5,-96 3657.5,-96 3657.5,-102 3651.5,-108 3645.5,-108"/>
<text text-anchor="middle" x="3612" y="-93" font-family="Arial" font-size="10.00">fCategoryCombo</text>
<text text-anchor="middle" x="3612" y="-82" font-family="Arial" font-size="10.00">(TGComboBox)</text>
</g>
<!-- ViewO3DataSel&#45;&gt;ViewO3CategoryCombo -->
<g id="edge70" class="edge">
<title>ViewO3DataSel&#45;&gt;ViewO3CategoryCombo</title>
<path fill="none" stroke="#666666" stroke-width="1.5" d="M3732.56,-146.32C3710.32,-136.12 3681.95,-123.1 3658.31,-112.25"/>
<polygon fill="#666666" stroke="#666666" stroke-width="1.5" points="3659.72,-109.05 3649.18,-108.06 3656.8,-115.41 3659.72,-109.05"/>
</g>
<!-- ViewO3YearCombo -->
<g id="node69" class="node">
<title>ViewO3YearCombo</title>
<path fill="#dfe6e9" stroke="black" d="M3748.5,-108C3748.5,-108 3687.5,-108 3687.5,-108 3681.5,-108 3675.5,-102 3675.5,-96 3675.5,-96 3675.5,-84 3675.5,-84 3675.5,-78 3681.5,-72 3687.5,-72 3687.5,-72 3748.5,-72 3748.5,-72 3754.5,-72 3760.5,-78 3760.5,-84 3760.5,-84 3760.5,-96 3760.5,-96 3760.5,-102 3754.5,-108 3748.5,-108"/>
<text text-anchor="middle" x="3718" y="-93" font-family="Arial" font-size="10.00">fYearCombo</text>
<text text-anchor="middle" x="3718" y="-82" font-family="Arial" font-size="10.00">(TGComboBox)</text>
</g>
<!-- ViewO3DataSel&#45;&gt;ViewO3YearCombo -->
<g id="edge71" class="edge">
<title>ViewO3DataSel&#45;&gt;ViewO3YearCombo</title>
<path fill="none" stroke="#666666" stroke-width="1.5" d="M3757.68,-146.32C3751.27,-137.38 3743.3,-126.28 3736.2,-116.37"/>
<polygon fill="#666666" stroke="#666666" stroke-width="1.5" points="3738.91,-114.14 3730.23,-108.06 3733.22,-118.22 3738.91,-114.14"/>
</g>
<!-- ViewO3GraphCombo -->
<g id="node70" class="node">
<title>ViewO3GraphCombo</title>
<path fill="#dfe6e9" stroke="black" d="M3851.5,-108C3851.5,-108 3790.5,-108 3790.5,-108 3784.5,-108 3778.5,-102 3778.5,-96 3778.5,-96 3778.5,-84 3778.5,-84 3778.5,-78 3784.5,-72 3790.5,-72 3790.5,-72 3851.5,-72 3851.5,-72 3857.5,-72 3863.5,-78 3863.5,-84 3863.5,-84 3863.5,-96 3863.5,-96 3863.5,-102 3857.5,-108 3851.5,-108"/>
<text text-anchor="middle" x="3821" y="-93" font-family="Arial" font-size="10.00">fGraphCombo</text>
<text text-anchor="middle" x="3821" y="-82" font-family="Arial" font-size="10.00">(TGComboBox)</text>
</g>
<!-- ViewO3DataSel&#45;&gt;ViewO3GraphCombo -->
<g id="edge72" class="edge">
<title>ViewO3DataSel&#45;&gt;ViewO3GraphCombo</title>
<path fill="none" stroke="#666666" stroke-width="1.5" d="M3782.09,-146.32C3788.37,-137.38 3796.18,-126.28 3803.15,-116.37"/>
<polygon fill="#666666" stroke="#666666" stroke-width="1.5" points="3806.11,-118.25 3809,-108.06 3800.38,-114.22 3806.11,-118.25"/>
</g>
<!-- ViewO3MultiYearCheck -->
<g id="node72" class="node">
<title>ViewO3MultiYearCheck</title>
<path fill="#dfe6e9" stroke="black" d="M3962.5,-108C3962.5,-108 3893.5,-108 3893.5,-108 3887.5,-108 3881.5,-102 3881.5,-96 3881.5,-96 3881.5,-84 3881.5,-84 3881.5,-78 3887.5,-72 3893.5,-72 3893.5,-72 3962.5,-72 3962.5,-72 3968.5,-72 3974.5,-78 3974.5,-84 3974.5,-84 3974.5,-96 3974.5,-96 3974.5,-102 3968.5,-108 3962.5,-108"/>
<text text-anchor="middle" x="3928" y="-93" font-family="Arial" font-size="10.00">fMultiYearCheck</text>
<text text-anchor="middle" x="3928" y="-82" font-family="Arial" font-size="10.00">(TGCheckButton)</text>
</g>
<!-- ViewO3Display&#45;&gt;ViewO3MultiYearCheck -->
<g id="edge73" class="edge">
<title>ViewO3Display&#45;&gt;ViewO3MultiYearCheck</title>
<path fill="none" stroke="#666666" stroke-width="1.5" d="M4021.09,-146.32C4004.53,-136.48 3983.55,-124.01 3965.71,-113.41"/>
<polygon fill="#666666" stroke="#666666" stroke-width="1.5" points="3967.09,-110.16 3956.7,-108.06 3963.51,-116.18 3967.09,-110.16"/>
</g>
<!-- ViewO3SuperPos -->
<g id="node73" class="node">
<title>ViewO3SuperPos</title>
<path fill="#dfe6e9" stroke="black" d="M4095.5,-108C4095.5,-108 4004.5,-108 4004.5,-108 3998.5,-108 3992.5,-102 3992.5,-96 3992.5,-96 3992.5,-84 3992.5,-84 3992.5,-78 3998.5,-72 4004.5,-72 4004.5,-72 4095.5,-72 4095.5,-72 4101.5,-72 4107.5,-78 4107.5,-84 4107.5,-84 4107.5,-96 4107.5,-96 4107.5,-102 4101.5,-108 4095.5,-108"/>
<text text-anchor="middle" x="4050" y="-87.5" font-family="Arial" font-size="10.00">Superposition Settings</text>
</g>
<!-- ViewO3Display&#45;&gt;ViewO3SuperPos -->
<g id="edge74" class="edge">
<title>ViewO3Display&#45;&gt;ViewO3SuperPos</title>
<path fill="none" stroke="#666666" stroke-width="1.5" d="M4050,-146.32C4050,-137.92 4050,-127.62 4050,-118.19"/>
<polygon fill="#666666" stroke="#666666" stroke-width="1.5" points="4053.5,-118.06 4050,-108.06 4046.5,-118.06 4053.5,-118.06"/>
</g>
<!-- ViewO3ConnectHistory -->
<g id="node76" class="node">
<title>ViewO3ConnectHistory</title>
<path fill="#dfe6e9" stroke="black" d="M4230,-108C4230,-108 4138,-108 4138,-108 4132,-108 4126,-102 4126,-96 4126,-96 4126,-84 4126,-84 4126,-78 4132,-72 4138,-72 4138,-72 4230,-72 4230,-72 4236,-72 4242,-78 4242,-84 4242,-84 4242,-96 4242,-96 4242,-102 4236,-108 4230,-108"/>
<text text-anchor="middle" x="4184" y="-93" font-family="Arial" font-size="10.00">fConnectHistoryCheck</text>
<text text-anchor="middle" x="4184" y="-82" font-family="Arial" font-size="10.00">(TGCheckButton)</text>
</g>
<!-- ViewO3Display&#45;&gt;ViewO3ConnectHistory -->
<g id="edge75" class="edge">
<title>ViewO3Display&#45;&gt;ViewO3ConnectHistory</title>
<path fill="none" stroke="#666666" stroke-width="1.5" d="M4081.76,-146.32C4100.28,-136.3 4123.83,-123.56 4143.66,-112.83"/>
<polygon fill="#666666" stroke="#666666" stroke-width="1.5" points="4145.34,-115.9 4152.47,-108.06 4142.01,-109.74 4145.34,-115.9"/>
</g>
<!-- ViewO3ConnectTeo -->
<g id="node77" class="node">
<title>ViewO3ConnectTeo</title>
<path fill="#dfe6e9" stroke="black" d="M4349.5,-108C4349.5,-108 4272.5,-108 4272.5,-108 4266.5,-108 4260.5,-102 4260.5,-96 4260.5,-96 4260.5,-84 4260.5,-84 4260.5,-78 4266.5,-72 4272.5,-72 4272.5,-72 4349.5,-72 4349.5,-72 4355.5,-72 4361.5,-78 4361.5,-84 4361.5,-84 4361.5,-96 4361.5,-96 4361.5,-102 4355.5,-108 4349.5,-108"/>
<text text-anchor="middle" x="4311" y="-93" font-family="Arial" font-size="10.00">fConnectTeoCheck</text>
<text text-anchor="middle" x="4311" y="-82" font-family="Arial" font-size="10.00">(TGCheckButton)</text>
</g>
<!-- ViewO3Display&#45;&gt;ViewO3ConnectTeo -->
<g id="edge76" class="edge">
<title>ViewO3Display&#45;&gt;ViewO3ConnectTeo</title>
<path fill="none" stroke="#666666" stroke-width="1.5" d="M4096.33,-150.8C4134.93,-140.2 4191.64,-124.58 4250.43,-108.15"/>
<polygon fill="#666666" stroke="#666666" stroke-width="1.5" points="4251.58,-111.46 4260.27,-105.4 4249.69,-104.72 4251.58,-111.46"/>
</g>
<!-- ViewO3HistoryColor -->
<g id="node74" class="node">
<title>ViewO3HistoryColor</title>
<path fill="#f8f9fa" stroke="black" d="M4033,-36C4033,-36 3955,-36 3955,-36 3949,-36 3943,-30 3943,-24 3943,-24 3943,-12 3943,-12 3943,-6 3949,0 3955,0 3955,0 4033,0 4033,0 4039,0 4045,-6 4045,-12 4045,-12 4045,-24 4045,-24 4045,-30 4039,-36 4033,-36"/>
<text text-anchor="middle" x="3994" y="-21" font-family="Arial" font-size="10.00">fHistoryColorSelect</text>
<text text-anchor="middle" x="3994" y="-10" font-family="Arial" font-size="10.00">(TGColorSelect)</text>
</g>
<!-- ViewO3SuperPos&#45;&gt;ViewO3HistoryColor -->
<g id="edge77" class="edge">
<title>ViewO3SuperPos&#45;&gt;ViewO3HistoryColor</title>
<path fill="none" stroke="#666666" stroke-width="1.5" d="M4036.16,-71.7C4029.51,-63.39 4021.42,-53.28 4014.11,-44.14"/>
<polygon fill="#666666" stroke="#666666" stroke-width="1.5" points="4016.66,-41.73 4007.68,-36.1 4011.2,-46.1 4016.66,-41.73"/>
</g>
<!-- ViewO3TeoColor -->
<g id="node75" class="node">
<title>ViewO3TeoColor</title>
<path fill="#f8f9fa" stroke="black" d="M4138.5,-36C4138.5,-36 4075.5,-36 4075.5,-36 4069.5,-36 4063.5,-30 4063.5,-24 4063.5,-24 4063.5,-12 4063.5,-12 4063.5,-6 4069.5,0 4075.5,0 4075.5,0 4138.5,0 4138.5,0 4144.5,0 4150.5,-6 4150.5,-12 4150.5,-12 4150.5,-24 4150.5,-24 4150.5,-30 4144.5,-36 4138.5,-36"/>
<text text-anchor="middle" x="4107" y="-21" font-family="Arial" font-size="10.00">fTeoColorSelect</text>
<text text-anchor="middle" x="4107" y="-10" font-family="Arial" font-size="10.00">(TGColorSelect)</text>
</g>
<!-- ViewO3SuperPos&#45;&gt;ViewO3TeoColor -->
<g id="edge78" class="edge">
<title>ViewO3SuperPos&#45;&gt;ViewO3TeoColor</title>
<path fill="none" stroke="#666666" stroke-width="1.5" d="M4064.09,-71.7C4070.92,-63.3 4079.26,-53.07 4086.76,-43.86"/>
<polygon fill="#666666" stroke="#666666" stroke-width="1.5" points="4089.47,-46.07 4093.07,-36.1 4084.04,-41.65 4089.47,-46.07"/>
</g>
<!-- ViewO3LoadBtn -->
<g id="node79" class="node">
<title>ViewO3LoadBtn</title>
<path fill="#dfe6e9" stroke="black" d="M4450.5,-108C4450.5,-108 4391.5,-108 4391.5,-108 4385.5,-108 4379.5,-102 4379.5,-96 4379.5,-96 4379.5,-84 4379.5,-84 4379.5,-78 4385.5,-72 4391.5,-72 4391.5,-72 4450.5,-72 4450.5,-72 4456.5,-72 4462.5,-78 4462.5,-84 4462.5,-84 4462.5,-96 4462.5,-96 4462.5,-102 4456.5,-108 4450.5,-108"/>
<text text-anchor="middle" x="4421" y="-93" font-family="Arial" font-size="10.00">fLoadButton</text>
<text text-anchor="middle" x="4421" y="-82" font-family="Arial" font-size="10.00">(TGTextButton)</text>
</g>
<!-- ViewO3Actions&#45;&gt;ViewO3LoadBtn -->
<g id="edge79" class="edge">
<title>ViewO3Actions&#45;&gt;ViewO3LoadBtn</title>
<path fill="none" stroke="#666666" stroke-width="1.5" d="M4553.76,-146.32C4529.06,-136.03 4497.48,-122.87 4471.31,-111.96"/>
<polygon fill="#666666" stroke="#666666" stroke-width="1.5" points="4472.52,-108.67 4461.94,-108.06 4469.82,-115.14 4472.52,-108.67"/>
</g>
<!-- ViewO3ExportAllCheck -->
<g id="node80" class="node">
<title>ViewO3ExportAllCheck</title>
<path fill="#dfe6e9" stroke="black" d="M4581.5,-108C4581.5,-108 4492.5,-108 4492.5,-108 4486.5,-108 4480.5,-102 4480.5,-96 4480.5,-96 4480.5,-84 4480.5,-84 4480.5,-78 4486.5,-72 4492.5,-72 4492.5,-72 4581.5,-72 4581.5,-72 4587.5,-72 4593.5,-78 4593.5,-84 4593.5,-84 4593.5,-96 4593.5,-96 4593.5,-102 4587.5,-108 4581.5,-108"/>
<text text-anchor="middle" x="4537" y="-93" font-family="Arial" font-size="10.00">fExportAllYearsCheck</text>
<text text-anchor="middle" x="4537" y="-82" font-family="Arial" font-size="10.00">(TGCheckButton)</text>
</g>
<!-- ViewO3Actions&#45;&gt;ViewO3ExportAllCheck -->
<g id="edge80" class="edge">
<title>ViewO3Actions&#45;&gt;ViewO3ExportAllCheck</title>
<path fill="none" stroke="#666666" stroke-width="1.5" d="M4581.25,-146.32C4574.03,-137.29 4565.04,-126.05 4557.06,-116.07"/>
<polygon fill="#666666" stroke="#666666" stroke-width="1.5" points="4559.63,-113.68 4550.65,-108.06 4554.16,-118.05 4559.63,-113.68"/>
</g>
<!-- ViewO3ExportBtn -->
<g id="node81" class="node">
<title>ViewO3ExportBtn</title>
<path fill="#dfe6e9" stroke="black" d="M4682.5,-108C4682.5,-108 4623.5,-108 4623.5,-108 4617.5,-108 4611.5,-102 4611.5,-96 4611.5,-96 4611.5,-84 4611.5,-84 4611.5,-78 4617.5,-72 4623.5,-72 4623.5,-72 4682.5,-72 4682.5,-72 4688.5,-72 4694.5,-78 4694.5,-84 4694.5,-84 4694.5,-96 4694.5,-96 4694.5,-102 4688.5,-108 4682.5,-108"/>
<text text-anchor="middle" x="4653" y="-93" font-family="Arial" font-size="10.00">fExportButton</text>
<text text-anchor="middle" x="4653" y="-82" font-family="Arial" font-size="10.00">(TGTextButton)</text>
</g>
<!-- ViewO3Actions&#45;&gt;ViewO3ExportBtn -->
<g id="edge81" class="edge">
<title>ViewO3Actions&#45;&gt;ViewO3ExportBtn</title>
<path fill="none" stroke="#666666" stroke-width="1.5" d="M4608.75,-146.32C4615.97,-137.29 4624.96,-126.05 4632.94,-116.07"/>
<polygon fill="#666666" stroke="#666666" stroke-width="1.5" points="4635.84,-118.05 4639.35,-108.06 4630.37,-113.68 4635.84,-118.05"/>
</g>
<!-- ViewO3ExitBtn -->
<g id="node82" class="node">
<title>ViewO3ExitBtn</title>
<path fill="#dfe6e9" stroke="black" d="M4783.5,-108C4783.5,-108 4724.5,-108 4724.5,-108 4718.5,-108 4712.5,-102 4712.5,-96 4712.5,-96 4712.5,-84 4712.5,-84 4712.5,-78 4718.5,-72 4724.5,-72 4724.5,-72 4783.5,-72 4783.5,-72 4789.5,-72 4795.5,-78 4795.5,-84 4795.5,-84 4795.5,-96 4795.5,-96 4795.5,-102 4789.5,-108 4783.5,-108"/>
<text text-anchor="middle" x="4754" y="-93" font-family="Arial" font-size="10.00">fExitButton</text>
<text text-anchor="middle" x="4754" y="-82" font-family="Arial" font-size="10.00">(TGTextButton)</text>
</g>
<!-- ViewO3Actions&#45;&gt;ViewO3ExitBtn -->
<g id="edge82" class="edge">
<title>ViewO3Actions&#45;&gt;ViewO3ExitBtn</title>
<path fill="none" stroke="#666666" stroke-width="1.5" d="M4632.68,-146.32C4655.06,-136.12 4683.61,-123.1 4707.4,-112.25"/>
<polygon fill="#666666" stroke="#666666" stroke-width="1.5" points="4708.94,-115.39 4716.59,-108.06 4706.04,-109.02 4708.94,-115.39"/>
</g>
<!-- ViewO3Status -->
<g id="node83" class="node">
<title>ViewO3Status</title>
<path fill="#dfe6e9" stroke="black" d="M4872.5,-108C4872.5,-108 4825.5,-108 4825.5,-108 4819.5,-108 4813.5,-102 4813.5,-96 4813.5,-96 4813.5,-84 4813.5,-84 4813.5,-78 4819.5,-72 4825.5,-72 4825.5,-72 4872.5,-72 4872.5,-72 4878.5,-72 4884.5,-78 4884.5,-84 4884.5,-84 4884.5,-96 4884.5,-96 4884.5,-102 4878.5,-108 4872.5,-108"/>
<text text-anchor="middle" x="4849" y="-93" font-family="Arial" font-size="10.00">fStatusLabel</text>
<text text-anchor="middle" x="4849" y="-82" font-family="Arial" font-size="10.00">(TGLabel)</text>
</g>
<!-- ViewO3Actions&#45;&gt;ViewO3Status -->
<g id="edge83" class="edge">
<title>ViewO3Actions&#45;&gt;ViewO3Status</title>
<path fill="none" stroke="#666666" stroke-width="1.5" d="M4637.23,-153.79C4677.84,-144.13 4741.06,-128.26 4803.49,-108.34"/>
<polygon fill="#666666" stroke="#666666" stroke-width="1.5" points="4804.65,-111.64 4813.1,-105.24 4802.51,-104.98 4804.65,-111.64"/>
</g>
</g>
</svg>
